usemtl skydome_high
v 0.73339840 0.60205080 -0.30322270
v 0.44726560 0.83691400 -0.30322270
v 0.00000000 0.00000000 -1.00048800
v 0.09277344 0.94433600 -0.30322270
v 0.19531250 0.98144530 0.00000000
v 0.38281250 0.92431640 0.00000000
v 0.55566410 0.83203120 0.00000000
v 0.73339840 0.60205080 -0.30322270
v 0.19531250 0.98095710 0.02441406
v 0.38281250 0.92431640 0.02441406
v 0.70751950 0.70751950 0.00000000
v 0.55566410 0.83154300 0.02441406
v 0.19482420 0.97998050 0.05273437
v 0.83203120 0.55566410 0.00000000
v 0.38232420 0.92333980 0.05273437
v 0.70703130 0.70703130 0.02441406
v 0.55517580 0.83056640 0.05273437
v 0.90820310 0.27539060 -0.30322270
v 0.00000000 0.00000000 -1.00048800
v 0.83154300 0.55566410 0.02441406
v 0.92431640 0.38281250 0.00000000
v 0.70654290 0.70654290 0.05273437
v 0.98144530 0.19531250 0.00000000
v 0.92431640 0.38281250 0.02441406
v 0.83056640 0.55517580 0.05273437
v 0.94433600 -0.09277344 -0.30322270
v 0.98095710 0.19531250 0.02441406
v 1.00048800 0.00000000 0.00000000
v 0.92333980 0.38232420 0.05273437
v 0.98144530 -0.19531250 0.00000000
v 1.00000000 0.00000000 0.02441406
v 0.97998050 0.19482420 0.05273437
v 0.83691400 -0.44726560 -0.30322270
v 0.98095710 -0.19531250 0.02441406
v 0.92431640 -0.38281250 0.00000000
v 0.99902340 0.00000000 0.05273437
v 0.83203120 -0.55566410 0.00000000
v 0.92431640 -0.38281250 0.02441406
v 0.97998050 -0.19482420 0.05273437
v 0.60205080 -0.73339840 -0.30322270
v 0.83154300 -0.55566410 0.02441406
v 0.70751950 -0.70751950 0.00000000
v 0.92333980 -0.38232420 0.05273437
v 0.55566410 -0.83203120 0.00000000
v 0.70703130 -0.70703130 0.02441406
v 0.83056640 -0.55517580 0.05273437
v 0.38281250 -0.92431640 0.00000000
v 0.55566410 -0.83154300 0.02441406
v 0.70654290 -0.70654290 0.05273437
v 0.27539060 -0.90820310 -0.30322270
v 0.38281250 -0.92431640 0.02441406
v 0.19531250 -0.98144530 0.00000000
v -0.09277344 -0.94433600 -0.30322270
v -0.73339840 -0.60205080 -0.30322270
v -0.44726560 -0.83691400 -0.30322270
v 0.00000000 -1.00048800 0.00000000
v -0.19531250 -0.98144530 0.00000000
v 0.19531250 -0.98095710 0.02441406
v 0.00000000 -1.00000000 0.02441406
v -0.38281250 -0.92431640 0.00000000
v 0.38232420 -0.92333980 0.05273437
v -0.19531250 -0.98095710 0.02441406
v -0.55566410 -0.83203120 0.00000000
v -0.73339840 -0.60205080 -0.30322270
v 0.19482420 -0.97998050 0.05273437
v 0.00000000 -0.99902340 0.05273437
v -0.38281250 -0.92431640 0.02441406
v -0.19482420 -0.97998050 0.05273437
v 0.19433590 -0.97753910 0.08789062
v -0.55566410 -0.83154300 0.02441406
v 0.00000000 -0.99658200 0.08789062
v -0.38232420 -0.92333980 0.05273437
v -0.19433590 -0.97753910 0.08789062
v -0.70751950 -0.70751950 0.00000000
v -0.55517580 -0.83056640 0.05273437
v -0.70703130 -0.70703130 0.02441406
v -0.83203120 -0.55566410 0.00000000
v -0.90820310 -0.27539060 -0.30322270
v -0.83154300 -0.55566410 0.02441406
v -0.92431640 -0.38281250 0.00000000
v -0.70654290 -0.70654290 0.05273437
v -0.92431640 -0.38281250 0.02441406
v -0.38134770 -0.92089840 0.08789062
v -0.55371090 -0.82861330 0.08789062
v -0.83056640 -0.55517580 0.05273437
v -0.70458990 -0.70458990 0.08789062
v -0.37890620 -0.91552730 0.13964840
v -0.55029300 -0.82373050 0.13964840
v -0.82861330 -0.55371090 0.08789062
v -0.19335940 -0.97167970 0.13964840
v -0.70068360 -0.70068360 0.13964840
v 0.00000000 -0.99072260 0.13964840
v -0.92333980 -0.38232420 0.05273437
v 0.19335940 -0.97167970 0.13964840
v -0.19189450 -0.96582030 0.17773440
v 0.00000000 -0.98437500 0.17773440
v 0.37890620 -0.91552730 0.13964840
v -0.37695310 -0.90966800 0.17773440
v 0.19189450 -0.96582030 0.17773440
v -0.54687500 -0.81884770 0.17773440
v -0.37255860 -0.89892580 0.23291010
v -0.69628900 -0.69628900 0.17773440
v -0.54052730 -0.80908200 0.23291010
v -0.68798830 -0.68798830 0.23291010
v -0.81884770 -0.54687500 0.17773440
v -0.80908200 -0.54052730 0.23291010
v -0.67431640 -0.67431640 0.30322270
v -0.82373050 -0.55029300 0.13964840
v -0.79296870 -0.52978510 0.30322270
v -0.52978510 -0.79296870 0.30322270
v -0.75830080 -0.50683590 0.41113280
v -0.64501960 -0.64501960 0.41113280
v -0.36474610 -0.88085940 0.30322270
v -0.50683590 -0.75830080 0.41113280
v -0.18994140 -0.95458980 0.23291010
v 0.00000000 -0.97314460 0.23291010
v -0.18603520 -0.93505860 0.30322270
v -0.34912110 -0.84277350 0.41113280
v 0.18994140 -0.95458980 0.23291010
v 0.00000000 -0.95361330 0.30322270
v -0.17773440 -0.89453130 0.41113280
v 0.37695310 -0.90966800 0.17773440
v 0.18603520 -0.93505860 0.30322270
v 0.37255860 -0.89892580 0.23291010
v 0.55029300 -0.82373050 0.13964840
v 0.00000000 -0.91210940 0.41113280
v 0.54687500 -0.81884770 0.17773440
v 0.36474610 -0.88085940 0.30322270
v 0.38134770 -0.92089840 0.08789062
v 0.55371090 -0.82861330 0.08789062
v 0.70068360 -0.70068360 0.13964840
v 0.55517580 -0.83056640 0.05273437
v 0.70458990 -0.70458990 0.08789062
v 0.82861330 -0.55371090 0.08789062
v 0.82373050 -0.55029300 0.13964840
v 0.92089840 -0.38134770 0.08789062
v 0.91552730 -0.37890620 0.13964840
v 0.69628900 -0.69628900 0.17773440
v 0.81884770 -0.54687500 0.17773440
v 0.54052730 -0.80908200 0.23291010
v 0.68798830 -0.68798830 0.23291010
v 0.52978510 -0.79296870 0.30322270
v 0.80908200 -0.54052730 0.23291010
v 0.67431640 -0.67431640 0.30322270
v 0.34912110 -0.84277350 0.41113280
v 0.50683590 -0.75830080 0.41113280
v 0.17773440 -0.89453130 0.41113280
v 0.16699220 -0.83837890 0.51953120
v 0.00000000 -0.85498040 0.51953120
v -0.16699220 -0.83837890 0.51953120
v 0.32714840 -0.79003900 0.51953120
v -0.32714840 -0.79003900 0.51953120
v -0.14453130 -0.72607420 0.67333980
v -0.47509770 -0.71093750 0.51953120
v -0.28320310 -0.68408200 0.67333980
v -0.41113280 -0.61523430 0.67333980
v -0.60449220 -0.60449220 0.51953120
v -0.52343750 -0.52343750 0.67333980
v -0.71093750 -0.47509770 0.51953120
v -0.61523430 -0.41113280 0.67333980
v -0.35400390 -0.35400390 0.86621090
v -0.41601560 -0.27783200 0.86621090
v -0.68408200 -0.28320310 0.67333980
v -0.27783200 -0.41601560 0.86621090
v -0.79003900 -0.32714840 0.51953120
v -0.19140620 -0.46240230 0.86621090
v -0.84277350 -0.34912110 0.41113280
v -0.09765625 -0.49072270 0.86621090
v -0.88085940 -0.36474610 0.30322270
v 0.00000000 -0.74023440 0.67333980
v -0.89892580 -0.37255860 0.23291010
v 0.14453130 -0.72607420 0.67333980
v -0.90966800 -0.37695310 0.17773440
v 0.00000000 -0.50048830 0.86621090
v 0.28320310 -0.68408200 0.67333980
v 0.09765625 -0.49072270 0.86621090
v -0.06054688 -0.30322270 0.95166020
v 0.00000000 -0.30908200 0.95166020
v -0.11816410 -0.28564450 0.95166020
v 0.00000000 -0.14501950 0.99755860
v -0.17187500 -0.25732420 0.95166020
v -0.02832031 -0.14257810 0.99755860
v -0.05566406 -0.13427730 0.99755860
v -0.21875000 -0.21875000 0.95166020
v -0.08056641 -0.12060550 0.99755860
v -0.25732420 -0.17187500 0.95166020
v -0.10253910 -0.10253910 0.99755860
v 0.00000000 0.00000000 1.00048800
v -0.12060550 -0.08056641 0.99755860
v -0.28564450 -0.11816410 0.95166020
v -0.13427730 -0.05566406 0.99755860
v -0.46240230 -0.19140620 0.86621090
v -0.30322270 -0.06054688 0.95166020
v -0.49072270 -0.09765625 0.86621090
v -0.14257810 -0.02832031 0.99755860
v -0.30908200 0.00000000 0.95166020
v -0.72607420 -0.14453130 0.67333980
v -0.50048830 0.00000000 0.86621090
v -0.14501950 0.00000000 0.99755860
v -0.30322270 0.06054688 0.95166020
v -0.14257810 0.02832031 0.99755860
v -0.49072270 0.09765625 0.86621090
v -0.28564450 0.11816410 0.95166020
v -0.13427730 0.05566406 0.99755860
v -0.74023440 0.00000000 0.67333980
v -0.46240230 0.19140620 0.86621090
v -0.83837890 -0.16699220 0.51953120
v -0.72607420 0.14453130 0.67333980
v -0.85498040 0.00000000 0.51953120
v -0.89453130 -0.17773440 0.41113280
v -0.83837890 0.16699220 0.51953120
v -0.93505860 -0.18603520 0.30322270
v -0.91210940 0.00000000 0.41113280
v -0.95458980 -0.18994140 0.23291010
v -0.95361330 0.00000000 0.30322270
v -0.89453130 0.17773440 0.41113280
v -0.68408200 0.28320310 0.67333980
v -0.79003900 0.32714840 0.51953120
v -0.93505860 0.18603520 0.30322270
v -0.41601560 0.27783200 0.86621090
v -0.84277350 0.34912110 0.41113280
v -0.61523430 0.41113280 0.67333980
v -0.71093750 0.47509770 0.51953120
v -0.25732420 0.17187500 0.95166020
v -0.35400390 0.35400390 0.86621090
v -0.12060550 0.08056641 0.99755860
v -0.21875000 0.21875000 0.95166020
v -0.10253910 0.10253910 0.99755860
v -0.17187500 0.25732420 0.95166020
v -0.08056641 0.12060550 0.99755860
v -0.27783200 0.41601560 0.86621090
v -0.11816410 0.28564450 0.95166020
v -0.52343750 0.52343750 0.67333980
v -0.05566406 0.13427730 0.99755860
v -0.60449220 0.60449220 0.51953120
v -0.06054688 0.30322270 0.95166020
v -0.41113280 0.61523430 0.67333980
v -0.19140620 0.46240230 0.86621090
v -0.28320310 0.68408200 0.67333980
v -0.02832031 0.14257810 0.99755860
v -0.09765625 0.49072270 0.86621090
v 0.00000000 0.30908200 0.95166020
v 0.00000000 0.14501950 0.99755860
v 0.00000000 0.50048830 0.86621090
v 0.06054688 0.30322270 0.95166020
v 0.02832031 0.14257810 0.99755860
v -0.14453130 0.72607420 0.67333980
v 0.09765625 0.49072270 0.86621090
v 0.11816410 0.28564450 0.95166020
v 0.05566406 0.13427730 0.99755860
v 0.00000000 0.74023440 0.67333980
v 0.19140620 0.46240230 0.86621090
v 0.17187500 0.25732420 0.95166020
v 0.08056641 0.12060550 0.99755860
v 0.14453130 0.72607420 0.67333980
v 0.27783200 0.41601560 0.86621090
v 0.21875000 0.21875000 0.95166020
v 0.10253910 0.10253910 0.99755860
v 0.28320310 0.68408200 0.67333980
v 0.35400390 0.35400390 0.86621090
v 0.25732420 0.17187500 0.95166020
v 0.12060550 0.08056641 0.99755860
v 0.41113280 0.61523430 0.67333980
v 0.41601560 0.27783200 0.86621090
v 0.28564450 0.11816410 0.95166020
v 0.13427730 0.05566406 0.99755860
v 0.52343750 0.52343750 0.67333980
v 0.46240230 0.19140620 0.86621090
v 0.30322270 0.06054688 0.95166020
v 0.14257810 0.02832031 0.99755860
v 0.61523430 0.41113280 0.67333980
v 0.49072270 0.09765625 0.86621090
v 0.30908200 0.00000000 0.95166020
v 0.14501950 0.00000000 0.99755860
v 0.68408200 0.28320310 0.67333980
v 0.50048830 0.00000000 0.86621090
v 0.30322270 -0.06054688 0.95166020
v 0.14257810 -0.02832031 0.99755860
v 0.72607420 0.14453130 0.67333980
v 0.49072270 -0.09765625 0.86621090
v 0.28564450 -0.11816410 0.95166020
v 0.13427730 -0.05566406 0.99755860
v 0.74023440 0.00000000 0.67333980
v 0.46240230 -0.19140620 0.86621090
v 0.25732420 -0.17187500 0.95166020
v 0.12060550 -0.08056641 0.99755860
v 0.72607420 -0.14453130 0.67333980
v 0.41601560 -0.27783200 0.86621090
v 0.21875000 -0.21875000 0.95166020
v 0.10253910 -0.10253910 0.99755860
v 0.68408200 -0.28320310 0.67333980
v 0.35400390 -0.35400390 0.86621090
v 0.17187500 -0.25732420 0.95166020
v 0.08056641 -0.12060550 0.99755860
v 0.61523430 -0.41113280 0.67333980
v 0.05566406 -0.13427730 0.99755860
v 0.11816410 -0.28564450 0.95166020
v 0.02832031 -0.14257810 0.99755860
v 0.06054688 -0.30322270 0.95166020
v 0.19140620 -0.46240230 0.86621090
v 0.27783200 -0.41601560 0.86621090
v 0.41113280 -0.61523430 0.67333980
v 0.52343750 -0.52343750 0.67333980
v 0.47509770 -0.71093750 0.51953120
v 0.60449220 -0.60449220 0.51953120
v 0.64501960 -0.64501960 0.41113280
v 0.71093750 -0.47509770 0.51953120
v 0.75830080 -0.50683590 0.41113280
v 0.79296870 -0.52978510 0.30322270
v 0.79003900 -0.32714840 0.51953120
v 0.84277350 -0.34912110 0.41113280
v 0.88085940 -0.36474610 0.30322270
v 0.83837890 -0.16699220 0.51953120
v 0.89453130 -0.17773440 0.41113280
v 0.85498040 0.00000000 0.51953120
v 0.91210940 0.00000000 0.41113280
v 0.93505860 -0.18603520 0.30322270
v 0.95361330 0.00000000 0.30322270
v 0.83837890 0.16699220 0.51953120
v 0.89453130 0.17773440 0.41113280
v 0.79003900 0.32714840 0.51953120
v 0.84277350 0.34912110 0.41113280
v 0.93505860 0.18603520 0.30322270
v 0.88085940 0.36474610 0.30322270
v 0.71093750 0.47509770 0.51953120
v 0.75830080 0.50683590 0.41113280
v 0.60449220 0.60449220 0.51953120
v 0.64501960 0.64501960 0.41113280
v 0.79296870 0.52978510 0.30322270
v 0.67431640 0.67431640 0.30322270
v 0.47509770 0.71093750 0.51953120
v 0.50683590 0.75830080 0.41113280
v 0.32714840 0.79003900 0.51953120
v 0.34912110 0.84277350 0.41113280
v 0.52978510 0.79296870 0.30322270
v 0.36474610 0.88085940 0.30322270
v 0.16699220 0.83837890 0.51953120
v 0.17773440 0.89453130 0.41113280
v 0.00000000 0.85498040 0.51953120
v 0.00000000 0.91210940 0.41113280
v 0.18603520 0.93505860 0.30322270
v 0.00000000 0.95361330 0.30322270
v -0.16699220 0.83837890 0.51953120
v -0.17773440 0.89453130 0.41113280
v -0.32714840 0.79003900 0.51953120
v -0.34912110 0.84277350 0.41113280
v -0.18603520 0.93505860 0.30322270
v -0.36474610 0.88085940 0.30322270
v -0.47509770 0.71093750 0.51953120
v -0.50683590 0.75830080 0.41113280
v -0.64501960 0.64501960 0.41113280
v -0.52978510 0.79296870 0.30322270
v -0.67431640 0.67431640 0.30322270
v -0.75830080 0.50683590 0.41113280
v -0.79296870 0.52978510 0.30322270
v -0.88085940 0.36474610 0.30322270
v -0.80908200 0.54052730 0.23291010
v -0.89892580 0.37255860 0.23291010
v -0.95458980 0.18994140 0.23291010
v -0.97314460 0.00000000 0.23291010
v -0.96582030 0.19189450 0.17773440
v -0.96582030 -0.19189450 0.17773440
v -0.98437500 0.00000000 0.17773440
v -0.91552730 -0.37890620 0.13964840
v -0.97167970 -0.19335940 0.13964840
v -0.92089840 -0.38134770 0.08789062
v -0.97753910 -0.19433590 0.08789062
v -0.97998050 -0.19482420 0.05273437
v -0.99072260 0.00000000 0.13964840
v -0.99658200 0.00000000 0.08789062
v -0.99902340 0.00000000 0.05273437
v -0.98095710 -0.19531250 0.02441406
v -1.00000000 0.00000000 0.02441406
v -0.98144530 -0.19531250 0.00000000
v -1.00048800 0.00000000 0.00000000
v -0.94433600 0.09277344 -0.30322270
v -0.98144530 0.19531250 0.00000000
v -0.98095710 0.19531250 0.02441406
v -0.83691400 0.44726560 -0.30322270
v -0.92431640 0.38281250 0.00000000
v -0.97998050 0.19482420 0.05273437
v -0.92431640 0.38281250 0.02441406
v -0.83203120 0.55566410 0.00000000
v -0.60205080 0.73339840 -0.30322270
v -0.27539060 0.90820310 -0.30322270
v -0.70751950 0.70751950 0.00000000
v -0.55566410 0.83203120 0.00000000
v -0.83154300 0.55566410 0.02441406
v -0.70703130 0.70703130 0.02441406
v -0.92333980 0.38232420 0.05273437
v -0.83056640 0.55517580 0.05273437
v -0.97753910 0.19433590 0.08789062
v -0.92089840 0.38134770 0.08789062
v -0.97167970 0.19335940 0.13964840
v -0.82861330 0.55371090 0.08789062
v -0.90966800 0.37695310 0.17773440
v -0.91552730 0.37890620 0.13964840
v -0.81884770 0.54687500 0.17773440
v -0.82373050 0.55029300 0.13964840
v -0.68798830 0.68798830 0.23291010
v -0.69628900 0.69628900 0.17773440
v -0.54052730 0.80908200 0.23291010
v -0.70068360 0.70068360 0.13964840
v -0.37255860 0.89892580 0.23291010
v -0.54687500 0.81884770 0.17773440
v -0.18994140 0.95458980 0.23291010
v -0.37695310 0.90966800 0.17773440
v -0.55029300 0.82373050 0.13964840
v 0.00000000 0.97314460 0.23291010
v -0.19189450 0.96582030 0.17773440
v -0.37890620 0.91552730 0.13964840
v 0.18994140 0.95458980 0.23291010
v 0.00000000 0.98437500 0.17773440
v -0.19335940 0.97167970 0.13964840
v 0.37255860 0.89892580 0.23291010
v 0.19189450 0.96582030 0.17773440
v 0.00000000 0.99072260 0.13964840
v 0.54052730 0.80908200 0.23291010
v 0.37695310 0.90966800 0.17773440
v 0.19335940 0.97167970 0.13964840
v 0.68798830 0.68798830 0.23291010
v 0.54687500 0.81884770 0.17773440
v 0.37890620 0.91552730 0.13964840
v 0.80908200 0.54052730 0.23291010
v 0.69628900 0.69628900 0.17773440
v 0.55029300 0.82373050 0.13964840
v 0.89892580 0.37255860 0.23291010
v 0.81884770 0.54687500 0.17773440
v 0.70068360 0.70068360 0.13964840
v 0.95458980 0.18994140 0.23291010
v 0.90966800 0.37695310 0.17773440
v 0.82373050 0.55029300 0.13964840
v 0.97314460 0.00000000 0.23291010
v 0.96582030 0.19189450 0.17773440
v 0.91552730 0.37890620 0.13964840
v 0.95458980 -0.18994140 0.23291010
v 0.98437500 0.00000000 0.17773440
v 0.97167970 0.19335940 0.13964840
v 0.89892580 -0.37255860 0.23291010
v 0.96582030 -0.19189450 0.17773440
v 0.90966800 -0.37695310 0.17773440
v 0.97167970 -0.19335940 0.13964840
v 0.99072260 0.00000000 0.13964840
v 0.97753910 -0.19433590 0.08789062
v 0.99658200 0.00000000 0.08789062
v 0.97753910 0.19433590 0.08789062
v 0.92089840 0.38134770 0.08789062
v 0.82861330 0.55371090 0.08789062
v 0.70458990 0.70458990 0.08789062
v 0.55371090 0.82861330 0.08789062
v 0.38134770 0.92089840 0.08789062
v 0.19433590 0.97753910 0.08789062
v 0.00000000 0.99658200 0.08789062
v 0.00000000 0.99902340 0.05273437
v -0.19433590 0.97753910 0.08789062
v 0.00000000 1.00000000 0.02441406
v -0.19482420 0.97998050 0.05273437
v -0.38134770 0.92089840 0.08789062
v 0.00000000 1.00048800 0.00000000
v -0.55371090 0.82861330 0.08789062
v -0.19531250 0.98144530 0.00000000
v -0.19531250 0.98095710 0.02441406
v -0.38281250 0.92431640 0.00000000
v -0.38281250 0.92431640 0.02441406
v -0.38232420 0.92333980 0.05273437
v -0.55566410 0.83154300 0.02441406
v -0.55517580 0.83056640 0.05273437
v -0.70654290 0.70654290 0.05273437
v -0.70458990 0.70458990 0.08789062
vt 0.49066160 0.37823490
vt 0.53935240 0.38302610
vt 0.50294490 0.50302120
vt 0.58250430 0.40608210
vt 0.78045650 0.08770752
vt 0.69410710 0.04154968
vt 0.60040280 0.01312256
vt 0.49066160 0.37823490
vt 0.74740600 0.13716130
vt 0.67134090 0.09651184
vt 0.50294490 0.00352478
vt 0.58879090 0.07147217
vt 0.71145630 0.19097900
vt 0.40550230 0.01312256
vt 0.64657590 0.15629580
vt 0.50294490 0.06301880
vt 0.57617190 0.13493350
vt 0.44384770 0.39242550
vt 0.50294490 0.50302120
vt 0.41711430 0.07147217
vt 0.31179810 0.04154968
vt 0.50294490 0.12773130
vt 0.22544860 0.08770752
vt 0.33456420 0.09651184
vt 0.42973330 0.13493350
vt 0.40602110 0.42347720
vt 0.25849920 0.13716130
vt 0.14974980 0.14982610
vt 0.35932920 0.15629580
vt 0.08763123 0.22550960
vt 0.19181820 0.19189450
vt 0.29444880 0.19097900
vt 0.38294980 0.46661380
vt 0.13710020 0.25856020
vt 0.04147339 0.31187440
vt 0.23757930 0.23765560
vt 0.01304626 0.40557860
vt 0.09643555 0.33464050
vt 0.19090270 0.29452510
vt 0.37815860 0.51530460
vt 0.07139587 0.41717530
vt 0.00344849 0.50302120
vt 0.15621950 0.35940550
vt 0.01304626 0.60046380
vt 0.06294251 0.50302120
vt 0.13487240 0.42980960
vt 0.04147339 0.69416810
vt 0.07139587 0.58886720
vt 0.12765500 0.50302120
vt 0.39236450 0.56213380
vt 0.09643555 0.67140200
vt 0.08763123 0.78053290
vt 0.42340090 0.59996030
vt 0.51524350 0.62780760
vt 0.46655270 0.62301630
vt 0.14974980 0.85621640
vt 0.22544860 0.91833500
vt 0.13710020 0.74748230
vt 0.19181820 0.81414800
vt 0.31179810 0.96449280
vt 0.15621950 0.64663690
vt 0.25849920 0.86888120
vt 0.40550230 0.99292000
vt 0.51524350 0.62780760
vt 0.19090270 0.71151730
vt 0.23757930 0.76838680
vt 0.33456420 0.90953070
vt 0.29444880 0.81506350
vt 0.24833680 0.67314150
vt 0.41711430 0.93457030
vt 0.28642270 0.71954340
vt 0.35932920 0.84974670
vt 0.33282470 0.75762940
vt 0.50294490 1.00251800
vt 0.42973330 0.87110900
vt 0.50294490 0.94302370
vt 0.60040280 0.99292000
vt 0.56205750 0.61361700
vt 0.58879090 0.93457030
vt 0.69410710 0.96449280
vt 0.50294490 0.87831120
vt 0.67134090 0.90953070
vt 0.38577270 0.78593440
vt 0.44320680 0.80336000
vt 0.57617190 0.87110900
vt 0.50294490 0.80923460
vt 0.41354370 0.71888730
vt 0.45736690 0.73217770
vt 0.56269840 0.80336000
vt 0.37313840 0.69729610
vt 0.50294490 0.73666380
vt 0.33773810 0.66822810
vt 0.64657590 0.84974670
vt 0.30868530 0.63282780
vt 0.39404300 0.66603090
vt 0.36433410 0.64164740
vt 0.28709410 0.59243780
vt 0.42793270 0.68414310
vt 0.33995060 0.61193850
vt 0.46470640 0.69529730
vt 0.44232180 0.64939880
vt 0.50294490 0.69906620
vt 0.47204590 0.65841680
vt 0.50294490 0.66145330
vt 0.54119870 0.69529730
vt 0.53385920 0.65841680
vt 0.50294490 0.62902830
vt 0.54853820 0.73217770
vt 0.52752680 0.62660220
vt 0.47836300 0.62660220
vt 0.52120970 0.59478760
vt 0.50294490 0.59658810
vt 0.45472720 0.61943060
vt 0.48469540 0.59478760
vt 0.41493230 0.63476570
vt 0.39091490 0.61505130
vt 0.43295290 0.60778810
vt 0.46714780 0.58946230
vt 0.37121580 0.59104920
vt 0.41384890 0.59211730
vt 0.45097350 0.58081060
vt 0.32183840 0.57804870
vt 0.39817810 0.57302860
vt 0.35656740 0.56365970
vt 0.27380370 0.54859920
vt 0.43679810 0.56918340
vt 0.31066890 0.54125980
vt 0.38653560 0.55123900
vt 0.22004700 0.62020870
vt 0.20262150 0.56275940
vt 0.26930240 0.50302120
vt 0.13487240 0.57623290
vt 0.19673160 0.50302120
vt 0.20262150 0.44328310
vt 0.27380370 0.45744320
vt 0.22004700 0.38583370
vt 0.28709410 0.41360470
vt 0.30691530 0.50302120
vt 0.31066890 0.46478270
vt 0.34754940 0.53393560
vt 0.34451290 0.50302120
vt 0.37936400 0.52760320
vt 0.34754940 0.47210690
vt 0.37695310 0.50302120
vt 0.41650390 0.53883360
vt 0.41117860 0.52127080
vt 0.42515570 0.55500790
vt 0.44386290 0.54251100
vt 0.45269780 0.55328370
vt 0.46347050 0.56211850
vt 0.43728640 0.53021240
vt 0.47575380 0.56867980
vt 0.47596740 0.54341130
vt 0.48909000 0.57272340
vt 0.48435970 0.54789730
vt 0.49346920 0.55065920
vt 0.50294490 0.57409670
vt 0.50294490 0.55160520
vt 0.51681520 0.57272340
vt 0.51243590 0.55065920
vt 0.50294490 0.52911380
vt 0.50804140 0.52861020
vt 0.52154540 0.54789730
vt 0.49786380 0.52861020
vt 0.53015140 0.56867980
vt 0.49296570 0.52711490
vt 0.53875730 0.58946230
vt 0.48846440 0.52470400
vt 0.55117800 0.61943060
vt 0.46859740 0.53736880
vt 0.56358340 0.64939880
vt 0.46255490 0.53001400
vt 0.57797240 0.68414310
vt 0.48451230 0.52146910
vt 0.45806880 0.52160650
vt 0.48126220 0.51751710
vt 0.49470520 0.51536560
vt 0.49246220 0.51351930
vt 0.49726870 0.51672360
vt 0.49818420 0.50776670
vt 0.50006100 0.51757810
vt 0.49920660 0.50860600
vt 0.50036620 0.50923160
vt 0.50294490 0.51785280
vt 0.50163270 0.50962830
vt 0.50584410 0.51757810
vt 0.50294490 0.50975040
vt 0.50294490 0.50302120
vt 0.50425720 0.50962830
vt 0.50863650 0.51672360
vt 0.50550840 0.50924680
vt 0.51293950 0.52711490
vt 0.51120000 0.51536560
vt 0.51744080 0.52470400
vt 0.50668330 0.50862120
vt 0.51344300 0.51351930
vt 0.52993770 0.54341130
vt 0.52139280 0.52146910
vt 0.50770570 0.50779720
vt 0.51528930 0.51126100
vt 0.50854490 0.50677490
vt 0.52464290 0.51751710
vt 0.51666260 0.50869750
vt 0.50917050 0.50561520
vt 0.53730770 0.53736880
vt 0.52705380 0.51300050
vt 0.54243470 0.56211850
vt 0.54335020 0.53001400
vt 0.55320740 0.55328370
vt 0.55493160 0.58081060
vt 0.56204220 0.54251100
vt 0.57295230 0.60778810
vt 0.56910700 0.56918340
vt 0.59097290 0.63476570
vt 0.59205630 0.59211730
vt 0.58074950 0.55500790
vt 0.54783630 0.52160650
vt 0.56861880 0.53021240
vt 0.60771180 0.57302860
vt 0.52853390 0.50810240
vt 0.58940120 0.53883360
vt 0.55059810 0.51249690
vt 0.57266240 0.51689150
vt 0.51750180 0.50592040
vt 0.52903750 0.50302120
vt 0.50955200 0.50434880
vt 0.51779170 0.50302120
vt 0.50968930 0.50303650
vt 0.51750180 0.50012210
vt 0.50955200 0.50172420
vt 0.52853390 0.49792480
vt 0.51666260 0.49734500
vt 0.55152890 0.50302120
vt 0.50917050 0.50045780
vt 0.57402040 0.50302120
vt 0.51528930 0.49478150
vt 0.55059810 0.49354550
vt 0.52705380 0.49304200
vt 0.54783630 0.48443600
vt 0.50856020 0.49929810
vt 0.52464290 0.48852540
vt 0.51344300 0.49252320
vt 0.50772090 0.49827580
vt 0.52139280 0.48457340
vt 0.51120000 0.49067690
vt 0.50669860 0.49743650
vt 0.54335020 0.47602840
vt 0.51744080 0.48133850
vt 0.50863650 0.48931890
vt 0.50553900 0.49681090
vt 0.53730770 0.46867370
vt 0.51293950 0.47892760
vt 0.50584410 0.48846440
vt 0.50427250 0.49641420
vt 0.52993770 0.46263120
vt 0.50804140 0.47743220
vt 0.50294490 0.48818970
vt 0.50296020 0.49629210
vt 0.52154540 0.45814520
vt 0.50294490 0.47692870
vt 0.50006100 0.48846440
vt 0.50164800 0.49641420
vt 0.51243590 0.45538330
vt 0.49786380 0.47743220
vt 0.49726870 0.48931890
vt 0.50038150 0.49679560
vt 0.50294490 0.45443730
vt 0.49296570 0.47892760
vt 0.49470520 0.49067690
vt 0.49922180 0.49742130
vt 0.49346920 0.45538330
vt 0.48846440 0.48133850
vt 0.49246220 0.49252320
vt 0.49819950 0.49824520
vt 0.48435970 0.45814520
vt 0.48451230 0.48457340
vt 0.49061580 0.49478150
vt 0.49736020 0.49926760
vt 0.47596740 0.46263120
vt 0.48126220 0.48852540
vt 0.48924250 0.49734500
vt 0.49673460 0.50042730
vt 0.46859740 0.46867370
vt 0.47885130 0.49304200
vt 0.48840330 0.50012210
vt 0.49635320 0.50169370
vt 0.46255490 0.47602840
vt 0.47737120 0.49792480
vt 0.48811340 0.50302120
vt 0.49621580 0.50300600
vt 0.45806880 0.48443600
vt 0.47686770 0.50302120
vt 0.48840330 0.50592040
vt 0.49635320 0.50431820
vt 0.45530700 0.49354550
vt 0.49671940 0.50558470
vt 0.48924250 0.50869750
vt 0.49734500 0.50674440
vt 0.49061580 0.51126100
vt 0.47885130 0.51300050
vt 0.47737120 0.50810240
vt 0.45530700 0.51249690
vt 0.45437620 0.50302120
vt 0.43324280 0.51689150
vt 0.43188480 0.50302120
vt 0.40939330 0.50302120
vt 0.43324280 0.48915100
vt 0.41117860 0.48477170
vt 0.37936400 0.47843930
vt 0.43728640 0.47583010
vt 0.41650390 0.46720890
vt 0.38653560 0.45480350
vt 0.44386290 0.46353150
vt 0.42515570 0.45103450
vt 0.45269780 0.45275880
vt 0.43679810 0.43685910
vt 0.39817810 0.43301390
vt 0.41384890 0.41392520
vt 0.46347050 0.44392390
vt 0.45097350 0.42523190
vt 0.47575380 0.43736270
vt 0.46714780 0.41658020
vt 0.43295290 0.39825440
vt 0.45472720 0.38661190
vt 0.48909000 0.43331910
vt 0.48469540 0.41125490
vt 0.50294490 0.43194580
vt 0.50294490 0.40945440
vt 0.47836300 0.37944030
vt 0.50294490 0.37701420
vt 0.51681520 0.43331910
vt 0.52120970 0.41125490
vt 0.53015140 0.43736270
vt 0.53875730 0.41658020
vt 0.52752680 0.37944030
vt 0.55117800 0.38661190
vt 0.54243470 0.44392390
vt 0.55493160 0.42523190
vt 0.55320740 0.45275880
vt 0.56910700 0.43685910
vt 0.57295230 0.39825440
vt 0.59205630 0.41392520
vt 0.56204220 0.46353150
vt 0.58074950 0.45103450
vt 0.56861880 0.47583010
vt 0.58940120 0.46720890
vt 0.60771180 0.43301390
vt 0.61936950 0.45480350
vt 0.57266240 0.48915100
vt 0.59471130 0.48477170
vt 0.59651190 0.50302120
vt 0.62652580 0.47843930
vt 0.62895210 0.50302120
vt 0.59471130 0.52127080
vt 0.62652580 0.52760320
vt 0.61936950 0.55123900
vt 0.65834040 0.53393560
vt 0.64933780 0.56365970
vt 0.63468930 0.59104920
vt 0.61499030 0.61505130
vt 0.66595460 0.61193850
vt 0.61186220 0.66603090
vt 0.64157100 0.64164740
vt 0.59236150 0.71888730
vt 0.63275150 0.69729610
vt 0.62013250 0.78593440
vt 0.67308050 0.75762940
vt 0.71145630 0.81506350
vt 0.66816710 0.66822810
vt 0.71948240 0.71954340
vt 0.76832580 0.76838680
vt 0.74740600 0.86888120
vt 0.81408690 0.81414800
vt 0.78045650 0.91833500
vt 0.85615540 0.85621640
vt 0.59988410 0.58256530
vt 0.91827390 0.78053290
vt 0.86880500 0.74748230
vt 0.62295530 0.53942870
vt 0.96443170 0.69416810
vt 0.81500240 0.71151730
vt 0.90946960 0.67140200
vt 0.99285890 0.60046380
vt 0.62774660 0.49072270
vt 0.61354070 0.44390870
vt 1.00245700 0.50302120
vt 0.99285890 0.40557860
vt 0.93450930 0.58886720
vt 0.94296260 0.50302120
vt 0.84967040 0.64663690
vt 0.87103270 0.57623290
vt 0.75756840 0.67314150
vt 0.78585810 0.62020870
vt 0.69721980 0.63282780
vt 0.80328370 0.56275940
vt 0.68406680 0.57804870
vt 0.71881100 0.59243780
vt 0.69522090 0.54125980
vt 0.73210140 0.54859920
vt 0.66139220 0.50302120
vt 0.69898980 0.50302120
vt 0.65834040 0.47210690
vt 0.73660280 0.50302120
vt 0.64933780 0.44238280
vt 0.69522090 0.46478270
vt 0.63468930 0.41499330
vt 0.68406680 0.42799380
vt 0.73210140 0.45744320
vt 0.61499030 0.39099120
vt 0.66595460 0.39410400
vt 0.71881100 0.41360470
vt 0.59097290 0.37127690
vt 0.64157100 0.36439510
vt 0.69721980 0.37321470
vt 0.56358340 0.35664370
vt 0.61186220 0.34001160
vt 0.66816710 0.33781430
vt 0.53385920 0.34762570
vt 0.57797240 0.32189940
vt 0.63275150 0.30874630
vt 0.50294490 0.34457400
vt 0.54119870 0.31074520
vt 0.59236150 0.28715520
vt 0.47204590 0.34762570
vt 0.50294490 0.30697630
vt 0.54853820 0.27386470
vt 0.44232180 0.35664370
vt 0.46470640 0.31074520
vt 0.50294490 0.26937870
vt 0.41493230 0.37127690
vt 0.42793270 0.32189940
vt 0.45736690 0.27386470
vt 0.39091490 0.39099120
vt 0.39404300 0.34001160
vt 0.41354370 0.28715520
vt 0.37121580 0.41499330
vt 0.36433410 0.36439510
vt 0.37313840 0.30874630
vt 0.35656740 0.44238280
vt 0.33995060 0.39410400
vt 0.32183840 0.42799380
vt 0.30868530 0.37321470
vt 0.33773810 0.33781430
vt 0.24833680 0.33290100
vt 0.28642270 0.28649900
vt 0.33282470 0.24841310
vt 0.38577270 0.22010800
vt 0.44320680 0.20268250
vt 0.50294490 0.19680790
vt 0.56269840 0.20268250
vt 0.62013250 0.22010800
vt 0.67308050 0.24841310
vt 0.71948240 0.28649900
vt 0.76832580 0.23765560
vt 0.75756840 0.33290100
vt 0.81408690 0.19189450
vt 0.81500240 0.29452510
vt 0.78585810 0.38583370
vt 0.85615540 0.14982610
vt 0.80328370 0.44328310
vt 0.91827390 0.22550960
vt 0.86880500 0.25856020
vt 0.96443170 0.31187440
vt 0.90946960 0.33464050
vt 0.84967040 0.35940550
vt 0.93450930 0.41717530
vt 0.87103270 0.42980960
vt 0.87825010 0.50302120
vt 0.80917360 0.50302120
vn -0.73624493 -0.60438753 0.30439959
vn -0.44897144 -0.84010593 0.30437917
vn -0.00000000 -0.00000000 1.00000000
vn -0.09313169 -0.94798260 0.30439361
vn -0.19517769 -0.98076790 -0.00000000
vn -0.38263916 -0.92389787 -0.00000000
vn -0.55537579 -0.83159950 -0.00000000
vn -0.73624493 -0.60438753 0.30439959
vn -0.19521298 -0.98045727 -0.02440162
vn -0.38252528 -0.92362290 -0.02439574
vn -0.70710678 -0.70710678 -0.00000000
vn -0.55543575 -0.83120128 -0.02440403
vn -0.19471722 -0.97944236 -0.05270541
vn -0.83159950 -0.55537579 -0.00000000
vn -0.38203604 -0.92264388 -0.05269462
vn -0.70689610 -0.70689610 -0.02440939
vn -0.55494232 -0.83021711 -0.05271219
vn -0.91157448 -0.27641289 0.30434830
vn -0.00000000 -0.00000000 1.00000000
vn -0.83120128 -0.55543575 -0.02440403
vn -0.92389787 -0.38263916 -0.00000000
vn -0.70612406 -0.70612406 -0.05270311
vn -0.98076790 -0.19517769 -0.00000000
vn -0.92362290 -0.38252528 -0.02439574
vn -0.83021711 -0.55494232 -0.05271219
vn -0.94798260 0.09313169 0.30439361
vn -0.98045727 -0.19521298 -0.02440162
vn -1.00000000 -0.00000000 -0.00000000
vn -0.92264388 -0.38203604 -0.05269462
vn -0.98076790 0.19517769 -0.00000000
vn -0.99970211 -0.00000000 -0.02440679
vn -0.97944236 -0.19471722 -0.05270541
vn -0.84010593 0.44897144 0.30437917
vn -0.98045727 0.19521298 -0.02440162
vn -0.92389787 0.38263916 -0.00000000
vn -0.99860973 -0.00000000 -0.05271253
vn -0.83159950 0.55537579 -0.00000000
vn -0.92362290 0.38252528 -0.02439574
vn -0.97944236 0.19471722 -0.05270541
vn -0.60438753 0.73624493 0.30439959
vn -0.83120128 0.55543575 -0.02440403
vn -0.70710678 0.70710678 -0.00000000
vn -0.92264388 0.38203604 -0.05269462
vn -0.55537579 0.83159950 -0.00000000
vn -0.70689610 0.70689610 -0.02440939
vn -0.83021711 0.55494232 -0.05271219
vn -0.38263916 0.92389787 -0.00000000
vn -0.55543575 0.83120128 -0.02440403
vn -0.70612406 0.70612406 -0.05270311
vn -0.27641289 0.91157448 0.30434830
vn -0.38252528 0.92362290 -0.02439574
vn -0.19517769 0.98076790 -0.00000000
vn 0.09313169 0.94798260 0.30439361
vn 0.73624493 0.60438753 0.30439959
vn 0.44897144 0.84010593 0.30437917
vn -0.00000000 1.00000000 -0.00000000
vn 0.19517769 0.98076790 -0.00000000
vn -0.19521298 0.98045727 -0.02440162
vn -0.00000000 0.99970211 -0.02440679
vn 0.38263916 0.92389787 -0.00000000
vn -0.38203604 0.92264388 -0.05269462
vn 0.19521298 0.98045727 -0.02440162
vn 0.55537579 0.83159950 -0.00000000
vn 0.73624493 0.60438753 0.30439959
vn -0.19471722 0.97944236 -0.05270541
vn -0.00000000 0.99860973 -0.05271253
vn 0.38252528 0.92362290 -0.02439574
vn 0.19471722 0.97944236 -0.05270541
vn -0.19423164 0.97701464 -0.08784347
vn 0.55543575 0.83120128 -0.02440403
vn -0.00000000 0.99613362 -0.08785108
vn 0.38203604 0.92264388 -0.05269462
vn 0.19423164 0.97701464 -0.08784347
vn 0.70710678 0.70710678 -0.00000000
vn 0.55494232 0.83021711 -0.05271219
vn 0.70689610 0.70689610 -0.02440939
vn 0.83159950 0.55537579 -0.00000000
vn 0.91157448 0.27641289 0.30434830
vn 0.83120128 0.55543575 -0.02440403
vn 0.92389787 0.38263916 -0.00000000
vn 0.70612406 0.70612406 -0.05270311
vn 0.92362290 0.38252528 -0.02439574
vn 0.38111820 0.92034420 -0.08783773
vn 0.55345622 0.82823218 -0.08785020
vn 0.83021711 0.55494232 -0.05271219
vn 0.70437207 0.70437207 -0.08786345
vn 0.37866737 0.91495023 -0.13956038
vn 0.55005763 0.82337817 -0.13958867
vn 0.82823218 0.55345622 -0.08785020
vn 0.19325787 0.97116950 -0.13957507
vn 0.70018780 0.70018780 -0.13954959
vn -0.00000000 0.99021131 -0.13957633
vn 0.92264388 0.38203604 -0.05269462
vn -0.19325787 0.97116950 -0.13957507
vn 0.19177737 0.96523079 -0.17762592
vn -0.00000000 0.98408786 -0.17768255
vn -0.37866737 0.91495023 -0.13956038
vn 0.37673108 0.90913221 -0.17762972
vn -0.19177737 0.96523079 -0.17762592
vn 0.54655445 0.81836773 -0.17763022
vn 0.37235114 0.89842524 -0.23278041
vn 0.69586248 0.69586248 -0.17762553
vn 0.54024899 0.80866542 -0.23279018
vn 0.68767791 0.68767791 -0.23280502
vn 0.81836773 0.54655445 -0.17763022
vn 0.80866542 0.54024899 -0.23279018
vn 0.67386196 0.67386196 -0.30301835
vn 0.82337817 0.55005763 -0.13958867
vn 0.79240803 0.52941051 -0.30300830
vn 0.52941051 0.79240803 -0.30300830
vn 0.75794733 0.50659965 -0.41094116
vn 0.64465523 0.64465523 -0.41090055
vn 0.36458262 0.88046460 -0.30308680
vn 0.50659965 0.75794733 -0.41094116
vn 0.18979280 0.95384298 -0.23272788
vn -0.00000000 0.97253330 -0.23276379
vn 0.18595268 0.93464386 -0.30308821
vn 0.34891480 0.84227549 -0.41088985
vn -0.18979280 0.95384298 -0.23272788
vn -0.00000000 0.95298343 -0.30302242
vn 0.17766282 0.89417105 -0.41096723
vn -0.37673108 0.90913221 -0.17762972
vn -0.18595268 0.93464386 -0.30308821
vn -0.37235114 0.89842524 -0.23278041
vn -0.55005763 0.82337817 -0.13958867
vn -0.00000000 0.91166565 -0.41093278
vn -0.54655445 0.81836773 -0.17763022
vn -0.36458262 0.88046460 -0.30308680
vn -0.38111820 0.92034420 -0.08783773
vn -0.55345622 0.82823218 -0.08785020
vn -0.70018780 0.70018780 -0.13954959
vn -0.55494232 0.83021711 -0.05271219
vn -0.70437207 0.70437207 -0.08786345
vn -0.82823218 0.55345622 -0.08785020
vn -0.82337817 0.55005763 -0.13958867
vn -0.92034420 0.38111820 -0.08783773
vn -0.91495023 0.37866737 -0.13956038
vn -0.69586248 0.69586248 -0.17762553
vn -0.81836773 0.54655445 -0.17763022
vn -0.54024899 0.80866542 -0.23279018
vn -0.68767791 0.68767791 -0.23280502
vn -0.52941051 0.79240803 -0.30300830
vn -0.80866542 0.54024899 -0.23279018
vn -0.67386196 0.67386196 -0.30301835
vn -0.34891480 0.84227549 -0.41088985
vn -0.50659965 0.75794733 -0.41094116
vn -0.17766282 0.89417105 -0.41096723
vn -0.16693560 0.83809473 -0.51935511
vn -0.00000000 0.85459415 -0.51929649
vn 0.16693560 0.83809473 -0.51935511
vn -0.32696856 0.78960469 -0.51924560
vn 0.32696856 0.78960469 -0.51924560
vn 0.14442594 0.72554492 -0.67284896
vn 0.47484548 0.71056007 -0.51925539
vn 0.28298265 0.68354950 -0.67281566
vn 0.41094178 0.61494844 -0.67302695
vn 0.60427038 0.60427038 -0.51934056
vn 0.52308189 0.52308189 -0.67288236
vn 0.71056007 0.47484548 -0.51925539
vn 0.61494844 0.41094178 -0.67302695
vn 0.35383430 0.35383430 -0.86579592
vn 0.41589482 0.27775134 -0.86595941
vn 0.68354950 0.28298265 -0.67281566
vn 0.27775134 0.41589482 -0.86595941
vn 0.78960469 0.32696856 -0.51924560
vn 0.19133221 0.46222356 -0.86587607
vn 0.84227549 0.34891480 -0.41088985
vn 0.09762371 0.49055917 -0.86592223
vn 0.88046460 0.36458262 -0.30308680
vn -0.00000000 0.73974136 -0.67289131
vn 0.89842524 0.37235114 -0.23278041
vn -0.14442594 0.72554492 -0.67284896
vn 0.90913221 0.37673108 -0.17762972
vn -0.00000000 0.50028576 -0.86586036
vn -0.28298265 0.68354950 -0.67281566
vn -0.09762371 0.49055917 -0.86592223
vn 0.06050856 0.30303078 -0.95105786
vn -0.00000000 0.30889844 -0.95109503
vn 0.11809252 0.28547146 -0.95108370
vn -0.00000000 0.14386219 -0.98959773
vn 0.17175362 0.25714248 -0.95098814
vn 0.02809292 0.14143332 -0.98954909
vn 0.05521717 0.13319928 -0.98954991
vn 0.21860137 0.21860137 -0.95101361
vn 0.07992323 0.11964267 -0.98959482
vn 0.25714248 0.17175362 -0.95098814
vn 0.10172091 0.10172091 -0.98959876
vn -0.00000000 -0.00000000 -1.00000000
vn 0.11964267 0.07992323 -0.98959482
vn 0.28547146 0.11809252 -0.95108370
vn 0.13319928 0.05521717 -0.98954991
vn 0.46222356 0.19133221 -0.86587607
vn 0.30303078 0.06050856 -0.95105786
vn 0.49055917 0.09762371 -0.86592223
vn 0.14143332 0.02809292 -0.98954909
vn 0.30889844 -0.00000000 -0.95109503
vn 0.72554492 0.14442594 -0.67284896
vn 0.50028576 -0.00000000 -0.86586036
vn 0.14386219 -0.00000000 -0.98959773
vn 0.30303078 -0.06050856 -0.95105786
vn 0.14143332 -0.02809292 -0.98954909
vn 0.49055917 -0.09762371 -0.86592223
vn 0.28547146 -0.11809252 -0.95108370
vn 0.13319928 -0.05521717 -0.98954991
vn 0.73974136 -0.00000000 -0.67289131
vn 0.46222356 -0.19133221 -0.86587607
vn 0.83809473 0.16693560 -0.51935511
vn 0.72554492 -0.14442594 -0.67284896
vn 0.85459415 -0.00000000 -0.51929649
vn 0.89417105 0.17766282 -0.41096723
vn 0.83809473 -0.16693560 -0.51935511
vn 0.93464386 0.18595268 -0.30308821
vn 0.91166565 -0.00000000 -0.41093278
vn 0.95384298 0.18979280 -0.23272788
vn 0.95298343 -0.00000000 -0.30302242
vn 0.89417105 -0.17766282 -0.41096723
vn 0.68354950 -0.28298265 -0.67281566
vn 0.78960469 -0.32696856 -0.51924560
vn 0.93464386 -0.18595268 -0.30308821
vn 0.41589482 -0.27775134 -0.86595941
vn 0.84227549 -0.34891480 -0.41088985
vn 0.61494844 -0.41094178 -0.67302695
vn 0.71056007 -0.47484548 -0.51925539
vn 0.25714248 -0.17175362 -0.95098814
vn 0.35383430 -0.35383430 -0.86579592
vn 0.11964267 -0.07992323 -0.98959482
vn 0.21860137 -0.21860137 -0.95101361
vn 0.10172091 -0.10172091 -0.98959876
vn 0.17175362 -0.25714248 -0.95098814
vn 0.07992323 -0.11964267 -0.98959482
vn 0.27775134 -0.41589482 -0.86595941
vn 0.11809252 -0.28547146 -0.95108370
vn 0.52308189 -0.52308189 -0.67288236
vn 0.05521717 -0.13319928 -0.98954991
vn 0.60427038 -0.60427038 -0.51934056
vn 0.06050856 -0.30303078 -0.95105786
vn 0.41094178 -0.61494844 -0.67302695
vn 0.19133221 -0.46222356 -0.86587607
vn 0.28298265 -0.68354950 -0.67281566
vn 0.02809292 -0.14143332 -0.98954909
vn 0.09762371 -0.49055917 -0.86592223
vn -0.00000000 -0.30889844 -0.95109503
vn -0.00000000 -0.14386219 -0.98959773
vn -0.00000000 -0.50028576 -0.86586036
vn -0.06050856 -0.30303078 -0.95105786
vn -0.02809292 -0.14143332 -0.98954909
vn 0.14442594 -0.72554492 -0.67284896
vn -0.09762371 -0.49055917 -0.86592223
vn -0.11809252 -0.28547146 -0.95108370
vn -0.05521717 -0.13319928 -0.98954991
vn -0.00000000 -0.73974136 -0.67289131
vn -0.19133221 -0.46222356 -0.86587607
vn -0.17175362 -0.25714248 -0.95098814
vn -0.07992323 -0.11964267 -0.98959482
vn -0.14442594 -0.72554492 -0.67284896
vn -0.27775134 -0.41589482 -0.86595941
vn -0.21860137 -0.21860137 -0.95101361
vn -0.10172091 -0.10172091 -0.98959876
vn -0.28298265 -0.68354950 -0.67281566
vn -0.35383430 -0.35383430 -0.86579592
vn -0.25714248 -0.17175362 -0.95098814
vn -0.11964267 -0.07992323 -0.98959482
vn -0.41094178 -0.61494844 -0.67302695
vn -0.41589482 -0.27775134 -0.86595941
vn -0.28547146 -0.11809252 -0.95108370
vn -0.13319928 -0.05521717 -0.98954991
vn -0.52308189 -0.52308189 -0.67288236
vn -0.46222356 -0.19133221 -0.86587607
vn -0.30303078 -0.06050856 -0.95105786
vn -0.14143332 -0.02809292 -0.98954909
vn -0.61494844 -0.41094178 -0.67302695
vn -0.49055917 -0.09762371 -0.86592223
vn -0.30889844 -0.00000000 -0.95109503
vn -0.14386219 -0.00000000 -0.98959773
vn -0.68354950 -0.28298265 -0.67281566
vn -0.50028576 -0.00000000 -0.86586036
vn -0.30303078 0.06050856 -0.95105786
vn -0.14143332 0.02809292 -0.98954909
vn -0.72554492 -0.14442594 -0.67284896
vn -0.49055917 0.09762371 -0.86592223
vn -0.28547146 0.11809252 -0.95108370
vn -0.13319928 0.05521717 -0.98954991
vn -0.73974136 -0.00000000 -0.67289131
vn -0.46222356 0.19133221 -0.86587607
vn -0.25714248 0.17175362 -0.95098814
vn -0.11964267 0.07992323 -0.98959482
vn -0.72554492 0.14442594 -0.67284896
vn -0.41589482 0.27775134 -0.86595941
vn -0.21860137 0.21860137 -0.95101361
vn -0.10172091 0.10172091 -0.98959876
vn -0.68354950 0.28298265 -0.67281566
vn -0.35383430 0.35383430 -0.86579592
vn -0.17175362 0.25714248 -0.95098814
vn -0.07992323 0.11964267 -0.98959482
vn -0.61494844 0.41094178 -0.67302695
vn -0.05521717 0.13319928 -0.98954991
vn -0.11809252 0.28547146 -0.95108370
vn -0.02809292 0.14143332 -0.98954909
vn -0.06050856 0.30303078 -0.95105786
vn -0.19133221 0.46222356 -0.86587607
vn -0.27775134 0.41589482 -0.86595941
vn -0.41094178 0.61494844 -0.67302695
vn -0.52308189 0.52308189 -0.67288236
vn -0.47484548 0.71056007 -0.51925539
vn -0.60427038 0.60427038 -0.51934056
vn -0.64465523 0.64465523 -0.41090055
vn -0.71056007 0.47484548 -0.51925539
vn -0.75794733 0.50659965 -0.41094116
vn -0.79240803 0.52941051 -0.30300830
vn -0.78960469 0.32696856 -0.51924560
vn -0.84227549 0.34891480 -0.41088985
vn -0.88046460 0.36458262 -0.30308680
vn -0.83809473 0.16693560 -0.51935511
vn -0.89417105 0.17766282 -0.41096723
vn -0.85459415 -0.00000000 -0.51929649
vn -0.91166565 -0.00000000 -0.41093278
vn -0.93464386 0.18595268 -0.30308821
vn -0.95298343 -0.00000000 -0.30302242
vn -0.83809473 -0.16693560 -0.51935511
vn -0.89417105 -0.17766282 -0.41096723
vn -0.78960469 -0.32696856 -0.51924560
vn -0.84227549 -0.34891480 -0.41088985
vn -0.93464386 -0.18595268 -0.30308821
vn -0.88046460 -0.36458262 -0.30308680
vn -0.71056007 -0.47484548 -0.51925539
vn -0.75794733 -0.50659965 -0.41094116
vn -0.60427038 -0.60427038 -0.51934056
vn -0.64465523 -0.64465523 -0.41090055
vn -0.79240803 -0.52941051 -0.30300830
vn -0.67386196 -0.67386196 -0.30301835
vn -0.47484548 -0.71056007 -0.51925539
vn -0.50659965 -0.75794733 -0.41094116
vn -0.32696856 -0.78960469 -0.51924560
vn -0.34891480 -0.84227549 -0.41088985
vn -0.52941051 -0.79240803 -0.30300830
vn -0.36458262 -0.88046460 -0.30308680
vn -0.16693560 -0.83809473 -0.51935511
vn -0.17766282 -0.89417105 -0.41096723
vn -0.00000000 -0.85459415 -0.51929649
vn -0.00000000 -0.91166565 -0.41093278
vn -0.18595268 -0.93464386 -0.30308821
vn -0.00000000 -0.95298343 -0.30302242
vn 0.16693560 -0.83809473 -0.51935511
vn 0.17766282 -0.89417105 -0.41096723
vn 0.32696856 -0.78960469 -0.51924560
vn 0.34891480 -0.84227549 -0.41088985
vn 0.18595268 -0.93464386 -0.30308821
vn 0.36458262 -0.88046460 -0.30308680
vn 0.47484548 -0.71056007 -0.51925539
vn 0.50659965 -0.75794733 -0.41094116
vn 0.64465523 -0.64465523 -0.41090055
vn 0.52941051 -0.79240803 -0.30300830
vn 0.67386196 -0.67386196 -0.30301835
vn 0.75794733 -0.50659965 -0.41094116
vn 0.79240803 -0.52941051 -0.30300830
vn 0.88046460 -0.36458262 -0.30308680
vn 0.80866542 -0.54024899 -0.23279018
vn 0.89842524 -0.37235114 -0.23278041
vn 0.95384298 -0.18979280 -0.23272788
vn 0.97253330 -0.00000000 -0.23276379
vn 0.96523079 -0.19177737 -0.17762592
vn 0.96523079 0.19177737 -0.17762592
vn 0.98408786 -0.00000000 -0.17768255
vn 0.91495023 0.37866737 -0.13956038
vn 0.97116950 0.19325787 -0.13957507
vn 0.92034420 0.38111820 -0.08783773
vn 0.97701464 0.19423164 -0.08784347
vn 0.97944236 0.19471722 -0.05270541
vn 0.99021131 -0.00000000 -0.13957633
vn 0.99613362 -0.00000000 -0.08785108
vn 0.99860973 -0.00000000 -0.05271253
vn 0.98045727 0.19521298 -0.02440162
vn 0.99970211 -0.00000000 -0.02440679
vn 0.98076790 0.19517769 -0.00000000
vn 1.00000000 -0.00000000 -0.00000000
vn 0.94798260 -0.09313169 0.30439361
vn 0.98076790 -0.19517769 -0.00000000
vn 0.98045727 -0.19521298 -0.02440162
vn 0.84010593 -0.44897144 0.30437917
vn 0.92389787 -0.38263916 -0.00000000
vn 0.97944236 -0.19471722 -0.05270541
vn 0.92362290 -0.38252528 -0.02439574
vn 0.83159950 -0.55537579 -0.00000000
vn 0.60438753 -0.73624493 0.30439959
vn 0.27641289 -0.91157448 0.30434830
vn 0.70710678 -0.70710678 -0.00000000
vn 0.55537579 -0.83159950 -0.00000000
vn 0.83120128 -0.55543575 -0.02440403
vn 0.70689610 -0.70689610 -0.02440939
vn 0.92264388 -0.38203604 -0.05269462
vn 0.83021711 -0.55494232 -0.05271219
vn 0.97701464 -0.19423164 -0.08784347
vn 0.92034420 -0.38111820 -0.08783773
vn 0.97116950 -0.19325787 -0.13957507
vn 0.82823218 -0.55345622 -0.08785020
vn 0.90913221 -0.37673108 -0.17762972
vn 0.91495023 -0.37866737 -0.13956038
vn 0.81836773 -0.54655445 -0.17763022
vn 0.82337817 -0.55005763 -0.13958867
vn 0.68767791 -0.68767791 -0.23280502
vn 0.69586248 -0.69586248 -0.17762553
vn 0.54024899 -0.80866542 -0.23279018
vn 0.70018780 -0.70018780 -0.13954959
vn 0.37235114 -0.89842524 -0.23278041
vn 0.54655445 -0.81836773 -0.17763022
vn 0.18979280 -0.95384298 -0.23272788
vn 0.37673108 -0.90913221 -0.17762972
vn 0.55005763 -0.82337817 -0.13958867
vn -0.00000000 -0.97253330 -0.23276379
vn 0.19177737 -0.96523079 -0.17762592
vn 0.37866737 -0.91495023 -0.13956038
vn -0.18979280 -0.95384298 -0.23272788
vn -0.00000000 -0.98408786 -0.17768255
vn 0.19325787 -0.97116950 -0.13957507
vn -0.37235114 -0.89842524 -0.23278041
vn -0.19177737 -0.96523079 -0.17762592
vn -0.00000000 -0.99021131 -0.13957633
vn -0.54024899 -0.80866542 -0.23279018
vn -0.37673108 -0.90913221 -0.17762972
vn -0.19325787 -0.97116950 -0.13957507
vn -0.68767791 -0.68767791 -0.23280502
vn -0.54655445 -0.81836773 -0.17763022
vn -0.37866737 -0.91495023 -0.13956038
vn -0.80866542 -0.54024899 -0.23279018
vn -0.69586248 -0.69586248 -0.17762553
vn -0.55005763 -0.82337817 -0.13958867
vn -0.89842524 -0.37235114 -0.23278041
vn -0.81836773 -0.54655445 -0.17763022
vn -0.70018780 -0.70018780 -0.13954959
vn -0.95384298 -0.18979280 -0.23272788
vn -0.90913221 -0.37673108 -0.17762972
vn -0.82337817 -0.55005763 -0.13958867
vn -0.97253330 -0.00000000 -0.23276379
vn -0.96523079 -0.19177737 -0.17762592
vn -0.91495023 -0.37866737 -0.13956038
vn -0.95384298 0.18979280 -0.23272788
vn -0.98408786 -0.00000000 -0.17768255
vn -0.97116950 -0.19325787 -0.13957507
vn -0.89842524 0.37235114 -0.23278041
vn -0.96523079 0.19177737 -0.17762592
vn -0.90913221 0.37673108 -0.17762972
vn -0.97116950 0.19325787 -0.13957507
vn -0.99021131 -0.00000000 -0.13957633
vn -0.97701464 0.19423164 -0.08784347
vn -0.99613362 -0.00000000 -0.08785108
vn -0.97701464 -0.19423164 -0.08784347
vn -0.92034420 -0.38111820 -0.08783773
vn -0.82823218 -0.55345622 -0.08785020
vn -0.70437207 -0.70437207 -0.08786345
vn -0.55345622 -0.82823218 -0.08785020
vn -0.38111820 -0.92034420 -0.08783773
vn -0.19423164 -0.97701464 -0.08784347
vn -0.00000000 -0.99613362 -0.08785108
vn -0.00000000 -0.99860973 -0.05271253
vn 0.19423164 -0.97701464 -0.08784347
vn -0.00000000 -0.99970211 -0.02440679
vn 0.19471722 -0.97944236 -0.05270541
vn 0.38111820 -0.92034420 -0.08783773
vn -0.00000000 -1.00000000 -0.00000000
vn 0.55345622 -0.82823218 -0.08785020
vn 0.19517769 -0.98076790 -0.00000000
vn 0.19521298 -0.98045727 -0.02440162
vn 0.38263916 -0.92389787 -0.00000000
vn 0.38252528 -0.92362290 -0.02439574
vn 0.38203604 -0.92264388 -0.05269462
vn 0.55543575 -0.83120128 -0.02440403
vn 0.55494232 -0.83021711 -0.05271219
vn 0.70612406 -0.70612406 -0.05270311
vn 0.70437207 -0.70437207 -0.08786345
f 1/1/1 2/2/2 3/3/3
f 2/2/2 4/4/4 3/3/3
f 5/5/5 4/4/4 2/2/2
f 2/2/2 6/6/6 5/5/5
f 7/7/7 6/6/6 2/2/2
f 7/7/7 2/2/2 8/8/8
f 9/9/9 5/5/5 6/6/6
f 10/10/10 6/6/6 7/7/7
f 6/6/6 10/10/10 9/9/9
f 8/8/8 11/11/11 7/7/7
f 7/7/7 12/12/12 10/10/10
f 12/12/12 7/7/7 11/11/11
f 13/13/13 9/9/9 10/10/10
f 14/14/14 11/11/11 8/8/8
f 15/15/15 10/10/10 12/12/12
f 10/10/10 15/15/15 13/13/13
f 11/11/11 16/16/16 12/12/12
f 16/16/16 11/11/11 14/14/14
f 12/12/12 17/17/17 15/15/15
f 17/17/17 12/12/12 16/16/16
f 14/14/14 8/8/8 18/18/18
f 18/18/18 8/8/8 19/19/19
f 14/14/14 20/20/20 16/16/16
f 18/18/18 21/21/21 14/14/14
f 20/20/20 14/14/14 21/21/21
f 16/16/16 22/22/22 17/17/17
f 22/22/22 16/16/16 20/20/20
f 23/23/23 21/21/21 18/18/18
f 21/21/21 24/24/24 20/20/20
f 24/24/24 21/21/21 23/23/23
f 20/20/20 25/25/25 22/22/22
f 25/25/25 20/20/20 24/24/24
f 23/23/23 18/18/18 26/26/26
f 26/26/26 18/18/18 19/19/19
f 23/23/23 27/27/27 24/24/24
f 26/26/26 28/28/28 23/23/23
f 27/27/27 23/23/23 28/28/28
f 24/24/24 29/29/29 25/25/25
f 29/29/29 24/24/24 27/27/27
f 30/30/30 28/28/28 26/26/26
f 28/28/28 31/31/31 27/27/27
f 31/31/31 28/28/28 30/30/30
f 27/27/27 32/32/32 29/29/29
f 32/32/32 27/27/27 31/31/31
f 30/30/30 26/26/26 33/33/33
f 33/33/33 26/26/26 19/19/19
f 30/30/30 34/34/34 31/31/31
f 33/33/33 35/35/35 30/30/30
f 34/34/34 30/30/30 35/35/35
f 31/31/31 36/36/36 32/32/32
f 36/36/36 31/31/31 34/34/34
f 37/37/37 35/35/35 33/33/33
f 35/35/35 38/38/38 34/34/34
f 38/38/38 35/35/35 37/37/37
f 34/34/34 39/39/39 36/36/36
f 39/39/39 34/34/34 38/38/38
f 37/37/37 33/33/33 40/40/40
f 40/40/40 33/33/33 19/19/19
f 37/37/37 41/41/41 38/38/38
f 40/40/40 42/42/42 37/37/37
f 41/41/41 37/37/37 42/42/42
f 38/38/38 43/43/43 39/39/39
f 43/43/43 38/38/38 41/41/41
f 44/44/44 42/42/42 40/40/40
f 42/42/42 45/45/45 41/41/41
f 45/45/45 42/42/42 44/44/44
f 41/41/41 46/46/46 43/43/43
f 46/46/46 41/41/41 45/45/45
f 47/47/47 44/44/44 40/40/40
f 44/44/44 48/48/48 45/45/45
f 48/48/48 44/44/44 47/47/47
f 45/45/45 49/49/49 46/46/46
f 49/49/49 45/45/45 48/48/48
f 40/40/40 50/50/50 47/47/47
f 50/50/50 40/40/40 19/19/19
f 47/47/47 51/51/51 48/48/48
f 52/52/52 47/47/47 50/50/50
f 51/51/51 47/47/47 52/52/52
f 53/53/53 50/50/50 19/19/19
f 52/52/52 50/50/50 53/53/53
f 54/54/54 55/55/55 19/19/19
f 55/55/55 53/53/53 19/19/19
f 53/53/53 56/56/56 52/52/52
f 57/57/57 53/53/53 55/55/55
f 57/57/57 56/56/56 53/53/53
f 58/58/58 52/52/52 56/56/56
f 52/52/52 58/58/58 51/51/51
f 59/59/59 56/56/56 57/57/57
f 56/56/56 59/59/59 58/58/58
f 55/55/55 60/60/60 57/57/57
f 61/61/61 51/51/51 58/58/58
f 62/62/62 57/57/57 60/60/60
f 57/57/57 62/62/62 59/59/59
f 63/63/63 60/60/60 55/55/55
f 63/63/63 55/55/55 64/64/64
f 65/65/65 58/58/58 59/59/59
f 58/58/58 65/65/65 61/61/61
f 66/66/66 59/59/59 62/62/62
f 59/59/59 66/66/66 65/65/65
f 60/60/60 67/67/67 62/62/62
f 67/67/67 60/60/60 63/63/63
f 62/62/62 68/68/68 66/66/66
f 68/68/68 62/62/62 67/67/67
f 69/69/69 65/65/65 66/66/66
f 63/63/63 70/70/70 67/67/67
f 71/71/71 66/66/66 68/68/68
f 66/66/66 71/71/71 69/69/69
f 67/67/67 72/72/72 68/68/68
f 72/72/72 67/67/67 70/70/70
f 68/68/68 73/73/73 71/71/71
f 73/73/73 68/68/68 72/72/72
f 70/70/70 63/63/63 74/74/74
f 64/64/64 74/74/74 63/63/63
f 70/70/70 75/75/75 72/72/72
f 74/74/74 76/76/76 70/70/70
f 75/75/75 70/70/70 76/76/76
f 77/77/77 74/74/74 64/64/64
f 76/76/76 74/74/74 77/77/77
f 77/77/77 64/64/64 78/78/78
f 78/78/78 64/64/64 3/3/3
f 77/77/77 79/79/79 76/76/76
f 78/78/78 80/80/80 77/77/77
f 79/79/79 77/77/77 80/80/80
f 81/81/81 76/76/76 79/79/79
f 76/76/76 81/81/81 75/75/75
f 80/80/80 82/82/82 79/79/79
f 83/83/83 72/72/72 75/75/75
f 72/72/72 83/83/83 73/73/73
f 84/84/84 75/75/75 81/81/81
f 75/75/75 84/84/84 83/83/83
f 79/79/79 85/85/85 81/81/81
f 85/85/85 79/79/79 82/82/82
f 81/81/81 86/86/86 84/84/84
f 86/86/86 81/81/81 85/85/85
f 87/87/87 83/83/83 84/84/84
f 88/88/88 84/84/84 86/86/86
f 84/84/84 88/88/88 87/87/87
f 85/85/85 89/89/89 86/86/86
f 83/83/83 87/87/87 90/90/90
f 90/90/90 73/73/73 83/83/83
f 86/86/86 91/91/91 88/88/88
f 91/91/91 86/86/86 89/89/89
f 73/73/73 90/90/90 92/92/92
f 92/92/92 71/71/71 73/73/73
f 89/89/89 85/85/85 93/93/93
f 82/82/82 93/93/93 85/85/85
f 71/71/71 92/92/92 94/94/94
f 94/94/94 69/69/69 71/71/71
f 92/92/92 90/90/90 95/95/95
f 94/94/94 92/92/92 96/96/96
f 95/95/95 96/96/96 92/92/92
f 69/69/69 94/94/94 97/97/97
f 98/98/98 95/95/95 90/90/90
f 90/90/90 87/87/87 98/98/98
f 97/97/97 94/94/94 99/99/99
f 96/96/96 99/99/99 94/94/94
f 100/100/100 98/98/98 87/87/87
f 87/87/87 88/88/88 100/100/100
f 95/95/95 98/98/98 101/101/101
f 102/102/102 100/100/100 88/88/88
f 88/88/88 91/91/91 102/102/102
f 98/98/98 100/100/100 103/103/103
f 103/103/103 101/101/101 98/98/98
f 100/100/100 102/102/102 104/104/104
f 104/104/104 103/103/103 100/100/100
f 105/105/105 102/102/102 91/91/91
f 106/106/106 104/104/104 102/102/102
f 102/102/102 105/105/105 106/106/106
f 103/103/103 104/104/104 107/107/107
f 91/91/91 108/108/108 105/105/105
f 89/89/89 108/108/108 91/91/91
f 109/109/109 107/107/107 104/104/104
f 104/104/104 106/106/106 109/109/109
f 107/107/107 110/110/110 103/103/103
f 101/101/101 103/103/103 110/110/110
f 107/107/107 109/109/109 111/111/111
f 110/110/110 107/107/107 112/112/112
f 111/111/111 112/112/112 107/107/107
f 110/110/110 113/113/113 101/101/101
f 112/112/112 114/114/114 110/110/110
f 113/113/113 110/110/110 114/114/114
f 115/115/115 101/101/101 113/113/113
f 101/101/101 115/115/115 95/95/95
f 96/96/96 95/95/95 115/115/115
f 115/115/115 116/116/116 96/96/96
f 99/99/99 96/96/96 116/116/116
f 113/113/113 117/117/117 115/115/115
f 116/116/116 115/115/115 117/117/117
f 114/114/114 118/118/118 113/113/113
f 117/117/117 113/113/113 118/118/118
f 116/116/116 119/119/119 99/99/99
f 117/117/117 120/120/120 116/116/116
f 119/119/119 116/116/116 120/120/120
f 118/118/118 121/121/121 117/117/117
f 120/120/120 117/117/117 121/121/121
f 122/122/122 99/99/99 119/119/119
f 99/99/99 122/122/122 97/97/97
f 120/120/120 123/123/123 119/119/119
f 119/119/119 124/124/124 122/122/122
f 124/124/124 119/119/119 123/123/123
f 125/125/125 97/97/97 122/122/122
f 123/123/123 120/120/120 126/126/126
f 121/121/121 126/126/126 120/120/120
f 127/127/127 122/122/122 124/124/124
f 122/122/122 127/127/127 125/125/125
f 123/123/123 128/128/128 124/124/124
f 129/129/129 97/97/97 125/125/125
f 97/97/97 129/129/129 69/69/69
f 65/65/65 69/69/69 129/129/129
f 129/129/129 61/61/61 65/65/65
f 125/125/125 130/130/130 129/129/129
f 61/61/61 129/129/129 130/130/130
f 130/130/130 125/125/125 131/131/131
f 131/131/131 125/125/125 127/127/127
f 130/130/130 132/132/132 61/61/61
f 51/51/51 61/61/61 132/132/132
f 132/132/132 48/48/48 51/51/51
f 48/48/48 132/132/132 49/49/49
f 132/132/132 130/130/130 133/133/133
f 133/133/133 49/49/49 132/132/132
f 131/131/131 133/133/133 130/130/130
f 49/49/49 133/133/133 134/134/134
f 134/134/134 46/46/46 49/49/49
f 133/133/133 131/131/131 135/135/135
f 135/135/135 134/134/134 133/133/133
f 46/46/46 134/134/134 136/136/136
f 136/136/136 43/43/43 46/46/46
f 134/134/134 135/135/135 137/137/137
f 137/137/137 136/136/136 134/134/134
f 135/135/135 131/131/131 138/138/138
f 127/127/127 138/138/138 131/131/131
f 137/137/137 135/135/135 139/139/139
f 138/138/138 139/139/139 135/135/135
f 138/138/138 127/127/127 140/140/140
f 124/124/124 140/140/140 127/127/127
f 140/140/140 124/124/124 128/128/128
f 140/140/140 141/141/141 138/138/138
f 139/139/139 138/138/138 141/141/141
f 128/128/128 142/142/142 140/140/140
f 141/141/141 140/140/140 142/142/142
f 141/141/141 143/143/143 139/139/139
f 142/142/142 144/144/144 141/141/141
f 143/143/143 141/141/141 144/144/144
f 142/142/142 128/128/128 145/145/145
f 144/144/144 142/142/142 146/146/146
f 145/145/145 146/146/146 142/142/142
f 147/147/147 145/145/145 128/128/128
f 128/128/128 123/123/123 147/147/147
f 126/126/126 147/147/147 123/123/123
f 145/145/145 147/147/147 148/148/148
f 147/147/147 126/126/126 149/149/149
f 149/149/149 148/148/148 147/147/147
f 150/150/150 149/149/149 126/126/126
f 126/126/126 121/121/121 150/150/150
f 148/148/148 151/151/151 145/145/145
f 146/146/146 145/145/145 151/151/151
f 152/152/152 150/150/150 121/121/121
f 121/121/121 118/118/118 152/152/152
f 149/149/149 150/150/150 153/153/153
f 154/154/154 152/152/152 118/118/118
f 118/118/118 114/114/114 154/154/154
f 150/150/150 152/152/152 155/155/155
f 155/155/155 153/153/153 150/150/150
f 152/152/152 154/154/154 156/156/156
f 156/156/156 155/155/155 152/152/152
f 157/157/157 154/154/154 114/114/114
f 114/114/114 112/112/112 157/157/157
f 158/158/158 156/156/156 154/154/154
f 154/154/154 157/157/157 158/158/158
f 159/159/159 157/157/157 112/112/112
f 112/112/112 111/111/111 159/159/159
f 160/160/160 158/158/158 157/157/157
f 157/157/157 159/159/159 160/160/160
f 156/156/156 158/158/158 161/161/161
f 158/158/158 160/160/160 162/162/162
f 162/162/162 161/161/161 158/158/158
f 163/163/163 160/160/160 159/159/159
f 161/161/161 164/164/164 156/156/156
f 155/155/155 156/156/156 164/164/164
f 165/165/165 159/159/159 111/111/111
f 159/159/159 165/165/165 163/163/163
f 164/164/164 166/166/166 155/155/155
f 153/153/153 155/155/155 166/166/166
f 111/111/111 167/167/167 165/165/165
f 167/167/167 111/111/111 109/109/109
f 166/166/166 168/168/168 153/153/153
f 109/109/109 169/169/169 167/167/167
f 169/169/169 109/109/109 106/106/106
f 170/170/170 153/153/153 168/168/168
f 153/153/153 170/170/170 149/149/149
f 148/148/148 149/149/149 170/170/170
f 106/106/106 171/171/171 169/169/169
f 171/171/171 106/106/106 105/105/105
f 170/170/170 172/172/172 148/148/148
f 151/151/151 148/148/148 172/172/172
f 105/105/105 173/173/173 171/171/171
f 173/173/173 105/105/105 108/108/108
f 172/172/172 170/170/170 174/174/174
f 168/168/168 174/174/174 170/170/170
f 172/172/172 175/175/175 151/151/151
f 174/174/174 176/176/176 172/172/172
f 175/175/175 172/172/172 176/176/176
f 174/174/174 168/168/168 177/177/177
f 176/176/176 174/174/174 178/178/178
f 177/177/177 178/178/178 174/174/174
f 179/179/179 177/177/177 168/168/168
f 168/168/168 166/166/166 179/179/179
f 180/180/180 178/178/178 177/177/177
f 181/181/181 179/179/179 166/166/166
f 166/166/166 164/164/164 181/181/181
f 182/182/182 177/177/177 179/179/179
f 177/177/177 182/182/182 180/180/180
f 183/183/183 179/179/179 181/181/181
f 179/179/179 183/183/183 182/182/182
f 184/184/184 181/181/181 164/164/164
f 164/164/164 161/161/161 184/184/184
f 181/181/181 185/185/185 183/183/183
f 185/185/185 181/181/181 184/184/184
f 186/186/186 184/184/184 161/161/161
f 161/161/161 162/162/162 186/186/186
f 184/184/184 187/187/187 185/185/185
f 187/187/187 184/184/184 186/186/186
f 188/188/188 183/183/183 185/185/185
f 188/188/188 182/182/182 183/183/183
f 188/188/188 185/185/185 187/187/187
f 188/188/188 180/180/180 182/182/182
f 186/186/186 189/189/189 187/187/187
f 188/188/188 187/187/187 189/189/189
f 189/189/189 186/186/186 190/190/190
f 190/190/190 186/186/186 162/162/162
f 190/190/190 191/191/191 189/189/189
f 188/188/188 189/189/189 191/191/191
f 162/162/162 192/192/192 190/190/190
f 192/192/192 162/162/162 160/160/160
f 160/160/160 163/163/163 192/192/192
f 191/191/191 190/190/190 193/193/193
f 193/193/193 190/190/190 192/192/192
f 194/194/194 192/192/192 163/163/163
f 192/192/192 194/194/194 193/193/193
f 193/193/193 195/195/195 191/191/191
f 188/188/188 191/191/191 195/195/195
f 196/196/196 193/193/193 194/194/194
f 195/195/195 193/193/193 196/196/196
f 163/163/163 197/197/197 194/194/194
f 197/197/197 163/163/163 165/165/165
f 194/194/194 198/198/198 196/196/196
f 198/198/198 194/194/194 197/197/197
f 196/196/196 199/199/199 195/195/195
f 188/188/188 195/195/195 199/199/199
f 199/199/199 196/196/196 200/200/200
f 200/200/200 196/196/196 198/198/198
f 200/200/200 201/201/201 199/199/199
f 188/188/188 199/199/199 201/201/201
f 198/198/198 202/202/202 200/200/200
f 201/201/201 200/200/200 203/203/203
f 203/203/203 200/200/200 202/202/202
f 203/203/203 204/204/204 201/201/201
f 188/188/188 201/201/201 204/204/204
f 202/202/202 198/198/198 205/205/205
f 197/197/197 205/205/205 198/198/198
f 202/202/202 206/206/206 203/203/203
f 205/205/205 197/197/197 207/207/207
f 165/165/165 207/207/207 197/197/197
f 207/207/207 165/165/165 167/167/167
f 205/205/205 208/208/208 202/202/202
f 206/206/206 202/202/202 208/208/208
f 207/207/207 209/209/209 205/205/205
f 208/208/208 205/205/205 209/209/209
f 167/167/167 210/210/210 207/207/207
f 209/209/209 207/207/207 210/210/210
f 210/210/210 167/167/167 169/169/169
f 209/209/209 211/211/211 208/208/208
f 169/169/169 212/212/212 210/210/210
f 212/212/212 169/169/169 171/171/171
f 210/210/210 213/213/213 209/209/209
f 213/213/213 210/210/210 212/212/212
f 211/211/211 209/209/209 213/213/213
f 171/171/171 214/214/214 212/212/212
f 214/214/214 171/171/171 173/173/173
f 212/212/212 215/215/215 213/213/213
f 215/215/215 212/212/212 214/214/214
f 213/213/213 216/216/216 211/211/211
f 216/216/216 213/213/213 215/215/215
f 217/217/217 208/208/208 211/211/211
f 208/208/208 217/217/217 206/206/206
f 218/218/218 211/211/211 216/216/216
f 211/211/211 218/218/218 217/217/217
f 215/215/215 219/219/219 216/216/216
f 220/220/220 206/206/206 217/217/217
f 216/216/216 221/221/221 218/218/218
f 221/221/221 216/216/216 219/219/219
f 222/222/222 217/217/217 218/218/218
f 217/217/217 222/222/222 220/220/220
f 223/223/223 218/218/218 221/221/221
f 218/218/218 223/223/223 222/222/222
f 206/206/206 220/220/220 224/224/224
f 224/224/224 203/203/203 206/206/206
f 204/204/204 203/203/203 224/224/224
f 225/225/225 220/220/220 222/222/222
f 224/224/224 226/226/226 204/204/204
f 227/227/227 224/224/224 220/220/220
f 226/226/226 224/224/224 227/227/227
f 220/220/220 225/225/225 227/227/227
f 188/188/188 204/204/204 226/226/226
f 227/227/227 228/228/228 226/226/226
f 188/188/188 226/226/226 228/228/228
f 228/228/228 227/227/227 229/229/229
f 229/229/229 227/227/227 225/225/225
f 229/229/229 230/230/230 228/228/228
f 188/188/188 228/228/228 230/230/230
f 225/225/225 231/231/231 229/229/229
f 230/230/230 229/229/229 232/232/232
f 232/232/232 229/229/229 231/231/231
f 222/222/222 233/233/233 225/225/225
f 231/231/231 225/225/225 233/233/233
f 233/233/233 222/222/222 223/223/223
f 232/232/232 234/234/234 230/230/230
f 188/188/188 230/230/230 234/234/234
f 223/223/223 235/235/235 233/233/233
f 234/234/234 232/232/232 236/236/236
f 237/237/237 233/233/233 235/235/235
f 233/233/233 237/237/237 231/231/231
f 231/231/231 238/238/238 232/232/232
f 238/238/238 231/231/231 237/237/237
f 236/236/236 232/232/232 238/238/238
f 237/237/237 239/239/239 238/238/238
f 236/236/236 240/240/240 234/234/234
f 188/188/188 234/234/234 240/240/240
f 238/238/238 241/241/241 236/236/236
f 241/241/241 238/238/238 239/239/239
f 240/240/240 236/236/236 242/242/242
f 242/242/242 236/236/236 241/241/241
f 242/242/242 243/243/243 240/240/240
f 188/188/188 240/240/240 243/243/243
f 241/241/241 244/244/244 242/242/242
f 243/243/243 242/242/242 245/245/245
f 245/245/245 242/242/242 244/244/244
f 245/245/245 246/246/246 243/243/243
f 188/188/188 243/243/243 246/246/246
f 244/244/244 241/241/241 247/247/247
f 239/239/239 247/247/247 241/241/241
f 244/244/244 248/248/248 245/245/245
f 246/246/246 245/245/245 249/249/249
f 249/249/249 245/245/245 248/248/248
f 249/249/249 250/250/250 246/246/246
f 188/188/188 246/246/246 250/250/250
f 248/248/248 244/244/244 251/251/251
f 247/247/247 251/251/251 244/244/244
f 248/248/248 252/252/252 249/249/249
f 250/250/250 249/249/249 253/253/253
f 253/253/253 249/249/249 252/252/252
f 253/253/253 254/254/254 250/250/250
f 188/188/188 250/250/250 254/254/254
f 252/252/252 248/248/248 255/255/255
f 251/251/251 255/255/255 248/248/248
f 252/252/252 256/256/256 253/253/253
f 254/254/254 253/253/253 257/257/257
f 257/257/257 253/253/253 256/256/256
f 257/257/257 258/258/258 254/254/254
f 188/188/188 254/254/254 258/258/258
f 256/256/256 252/252/252 259/259/259
f 255/255/255 259/259/259 252/252/252
f 256/256/256 260/260/260 257/257/257
f 258/258/258 257/257/257 261/261/261
f 261/261/261 257/257/257 260/260/260
f 261/261/261 262/262/262 258/258/258
f 188/188/188 258/258/258 262/262/262
f 260/260/260 256/256/256 263/263/263
f 259/259/259 263/263/263 256/256/256
f 260/260/260 264/264/264 261/261/261
f 262/262/262 261/261/261 265/265/265
f 265/265/265 261/261/261 264/264/264
f 265/265/265 266/266/266 262/262/262
f 188/188/188 262/262/262 266/266/266
f 264/264/264 260/260/260 267/267/267
f 263/263/263 267/267/267 260/260/260
f 264/264/264 268/268/268 265/265/265
f 266/266/266 265/265/265 269/269/269
f 269/269/269 265/265/265 268/268/268
f 269/269/269 270/270/270 266/266/266
f 188/188/188 266/266/266 270/270/270
f 268/268/268 264/264/264 271/271/271
f 267/267/267 271/271/271 264/264/264
f 268/268/268 272/272/272 269/269/269
f 270/270/270 269/269/269 273/273/273
f 273/273/273 269/269/269 272/272/272
f 273/273/273 274/274/274 270/270/270
f 188/188/188 270/270/270 274/274/274
f 272/272/272 268/268/268 275/275/275
f 271/271/271 275/275/275 268/268/268
f 272/272/272 276/276/276 273/273/273
f 274/274/274 273/273/273 277/277/277
f 277/277/277 273/273/273 276/276/276
f 277/277/277 278/278/278 274/274/274
f 188/188/188 274/274/274 278/278/278
f 276/276/276 272/272/272 279/279/279
f 275/275/275 279/279/279 272/272/272
f 276/276/276 280/280/280 277/277/277
f 278/278/278 277/277/277 281/281/281
f 281/281/281 277/277/277 280/280/280
f 281/281/281 282/282/282 278/278/278
f 188/188/188 278/278/278 282/282/282
f 280/280/280 276/276/276 283/283/283
f 279/279/279 283/283/283 276/276/276
f 280/280/280 284/284/284 281/281/281
f 282/282/282 281/281/281 285/285/285
f 285/285/285 281/281/281 284/284/284
f 285/285/285 286/286/286 282/282/282
f 188/188/188 282/282/282 286/286/286
f 284/284/284 280/280/280 287/287/287
f 283/283/283 287/287/287 280/280/280
f 284/284/284 288/288/288 285/285/285
f 286/286/286 285/285/285 289/289/289
f 289/289/289 285/285/285 288/288/288
f 289/289/289 290/290/290 286/286/286
f 188/188/188 286/286/286 290/290/290
f 288/288/288 284/284/284 291/291/291
f 287/287/287 291/291/291 284/284/284
f 288/288/288 292/292/292 289/289/289
f 290/290/290 289/289/289 293/293/293
f 293/293/293 289/289/289 292/292/292
f 293/293/293 294/294/294 290/290/290
f 188/188/188 290/290/290 294/294/294
f 292/292/292 288/288/288 295/295/295
f 291/291/291 295/295/295 288/288/288
f 188/188/188 294/294/294 296/296/296
f 294/294/294 293/293/293 297/297/297
f 297/297/297 296/296/296 294/294/294
f 188/188/188 296/296/296 298/298/298
f 188/188/188 298/298/298 180/180/180
f 178/178/178 180/180/180 298/298/298
f 299/299/299 298/298/298 296/296/296
f 298/298/298 299/299/299 178/178/178
f 296/296/296 297/297/297 299/299/299
f 178/178/178 299/299/299 176/176/176
f 300/300/300 176/176/176 299/299/299
f 299/299/299 297/297/297 300/300/300
f 176/176/176 300/300/300 175/175/175
f 297/297/297 293/293/293 301/301/301
f 301/301/301 300/300/300 297/297/297
f 292/292/292 301/301/301 293/293/293
f 302/302/302 175/175/175 300/300/300
f 300/300/300 301/301/301 302/302/302
f 301/301/301 292/292/292 303/303/303
f 303/303/303 302/302/302 301/301/301
f 295/295/295 303/303/303 292/292/292
f 175/175/175 302/302/302 304/304/304
f 304/304/304 151/151/151 175/175/175
f 151/151/151 304/304/304 146/146/146
f 302/302/302 303/303/303 305/305/305
f 305/305/305 304/304/304 302/302/302
f 306/306/306 146/146/146 304/304/304
f 304/304/304 305/305/305 306/306/306
f 146/146/146 306/306/306 144/144/144
f 307/307/307 305/305/305 303/303/303
f 303/303/303 295/295/295 307/307/307
f 308/308/308 306/306/306 305/305/305
f 305/305/305 307/307/307 308/308/308
f 309/309/309 144/144/144 306/306/306
f 306/306/306 308/308/308 309/309/309
f 144/144/144 309/309/309 143/143/143
f 310/310/310 307/307/307 295/295/295
f 295/295/295 291/291/291 310/310/310
f 311/311/311 308/308/308 307/307/307
f 307/307/307 310/310/310 311/311/311
f 312/312/312 309/309/309 308/308/308
f 308/308/308 311/311/311 312/312/312
f 313/313/313 310/310/310 291/291/291
f 291/291/291 287/287/287 313/313/313
f 314/314/314 311/311/311 310/310/310
f 310/310/310 313/313/313 314/314/314
f 315/315/315 313/313/313 287/287/287
f 287/287/287 283/283/283 315/315/315
f 316/316/316 314/314/314 313/313/313
f 313/313/313 315/315/315 316/316/316
f 311/311/311 314/314/314 317/317/317
f 317/317/317 312/312/312 311/311/311
f 314/314/314 316/316/316 318/318/318
f 318/318/318 317/317/317 314/314/314
f 319/319/319 315/315/315 283/283/283
f 283/283/283 279/279/279 319/319/319
f 320/320/320 316/316/316 315/315/315
f 315/315/315 319/319/319 320/320/320
f 321/321/321 319/319/319 279/279/279
f 279/279/279 275/275/275 321/321/321
f 322/322/322 320/320/320 319/319/319
f 319/319/319 321/321/321 322/322/322
f 316/316/316 320/320/320 323/323/323
f 323/323/323 318/318/318 316/316/316
f 320/320/320 322/322/322 324/324/324
f 324/324/324 323/323/323 320/320/320
f 325/325/325 321/321/321 275/275/275
f 275/275/275 271/271/271 325/325/325
f 326/326/326 322/322/322 321/321/321
f 321/321/321 325/325/325 326/326/326
f 327/327/327 325/325/325 271/271/271
f 271/271/271 267/267/267 327/327/327
f 328/328/328 326/326/326 325/325/325
f 325/325/325 327/327/327 328/328/328
f 322/322/322 326/326/326 329/329/329
f 329/329/329 324/324/324 322/322/322
f 326/326/326 328/328/328 330/330/330
f 330/330/330 329/329/329 326/326/326
f 331/331/331 327/327/327 267/267/267
f 267/267/267 263/263/263 331/331/331
f 332/332/332 328/328/328 327/327/327
f 327/327/327 331/331/331 332/332/332
f 333/333/333 331/331/331 263/263/263
f 263/263/263 259/259/259 333/333/333
f 334/334/334 332/332/332 331/331/331
f 331/331/331 333/333/333 334/334/334
f 328/328/328 332/332/332 335/335/335
f 335/335/335 330/330/330 328/328/328
f 332/332/332 334/334/334 336/336/336
f 336/336/336 335/335/335 332/332/332
f 337/337/337 333/333/333 259/259/259
f 259/259/259 255/255/255 337/337/337
f 338/338/338 334/334/334 333/333/333
f 333/333/333 337/337/337 338/338/338
f 339/339/339 337/337/337 255/255/255
f 255/255/255 251/251/251 339/339/339
f 340/340/340 338/338/338 337/337/337
f 337/337/337 339/339/339 340/340/340
f 334/334/334 338/338/338 341/341/341
f 341/341/341 336/336/336 334/334/334
f 338/338/338 340/340/340 342/342/342
f 342/342/342 341/341/341 338/338/338
f 343/343/343 339/339/339 251/251/251
f 251/251/251 247/247/247 343/343/343
f 344/344/344 340/340/340 339/339/339
f 339/339/339 343/343/343 344/344/344
f 345/345/345 343/343/343 247/247/247
f 247/247/247 239/239/239 345/345/345
f 346/346/346 344/344/344 343/343/343
f 343/343/343 345/345/345 346/346/346
f 340/340/340 344/344/344 347/347/347
f 347/347/347 342/342/342 340/340/340
f 344/344/344 346/346/346 348/348/348
f 348/348/348 347/347/347 344/344/344
f 349/349/349 345/345/345 239/239/239
f 239/239/239 237/237/237 349/349/349
f 235/235/235 349/349/349 237/237/237
f 350/350/350 346/346/346 345/345/345
f 345/345/345 349/349/349 350/350/350
f 349/349/349 235/235/235 351/351/351
f 351/351/351 350/350/350 349/349/349
f 346/346/346 350/350/350 352/352/352
f 352/352/352 348/348/348 346/346/346
f 350/350/350 351/351/351 353/353/353
f 353/353/353 352/352/352 350/350/350
f 354/354/354 351/351/351 235/235/235
f 235/235/235 223/223/223 354/354/354
f 221/221/221 354/354/354 223/223/223
f 351/351/351 354/354/354 355/355/355
f 355/355/355 353/353/353 351/351/351
f 354/354/354 221/221/221 356/356/356
f 356/356/356 355/355/355 354/354/354
f 219/219/219 356/356/356 221/221/221
f 353/353/353 355/355/355 357/357/357
f 355/355/355 356/356/356 358/358/358
f 358/358/358 357/357/357 355/355/355
f 356/356/356 219/219/219 359/359/359
f 359/359/359 358/358/358 356/356/356
f 360/360/360 359/359/359 219/219/219
f 219/219/219 215/215/215 360/360/360
f 214/214/214 360/360/360 215/215/215
f 358/358/358 359/359/359 361/361/361
f 360/360/360 214/214/214 362/362/362
f 173/173/173 362/362/362 214/214/214
f 359/359/359 360/360/360 363/363/363
f 362/362/362 363/363/363 360/360/360
f 363/363/363 361/361/361 359/359/359
f 362/362/362 173/173/173 364/364/364
f 108/108/108 364/364/364 173/173/173
f 363/363/363 362/362/362 365/365/365
f 364/364/364 365/365/365 362/362/362
f 366/366/366 364/364/364 108/108/108
f 108/108/108 89/89/89 366/366/366
f 93/93/93 366/366/366 89/89/89
f 364/364/364 366/366/366 367/367/367
f 367/367/367 365/365/365 364/364/364
f 366/366/366 93/93/93 368/368/368
f 368/368/368 367/367/367 366/366/366
f 365/365/365 369/369/369 363/363/363
f 361/361/361 363/363/363 369/369/369
f 365/365/365 367/367/367 370/370/370
f 370/370/370 369/369/369 365/365/365
f 367/367/367 368/368/368 371/371/371
f 371/371/371 370/370/370 367/367/367
f 372/372/372 368/368/368 93/93/93
f 93/93/93 82/82/82 372/372/372
f 373/373/373 371/371/371 368/368/368
f 368/368/368 372/372/372 373/373/373
f 374/374/374 372/372/372 82/82/82
f 82/82/82 80/80/80 374/374/374
f 374/374/374 80/80/80 78/78/78
f 372/372/372 374/374/374 375/375/375
f 375/375/375 373/373/373 372/372/372
f 374/374/374 78/78/78 376/376/376
f 376/376/376 375/375/375 374/374/374
f 376/376/376 78/78/78 3/3/3
f 373/373/373 375/375/375 377/377/377
f 377/377/377 375/375/375 376/376/376
f 371/371/371 373/373/373 378/378/378
f 377/377/377 378/378/378 373/373/373
f 377/377/377 376/376/376 379/379/379
f 379/379/379 376/376/376 3/3/3
f 378/378/378 377/377/377 380/380/380
f 379/379/379 380/380/380 377/377/377
f 378/378/378 381/381/381 371/371/371
f 370/370/370 371/371/371 381/381/381
f 380/380/380 382/382/382 378/378/378
f 381/381/381 378/378/378 382/382/382
f 383/383/383 380/380/380 379/379/379
f 382/382/382 380/380/380 383/383/383
f 384/384/384 379/379/379 3/3/3
f 383/383/383 379/379/379 384/384/384
f 385/385/385 384/384/384 3/3/3
f 4/4/4 385/385/385 3/3/3
f 384/384/384 386/386/386 383/383/383
f 387/387/387 384/384/384 385/385/385
f 387/387/387 386/386/386 384/384/384
f 388/388/388 383/383/383 386/386/386
f 383/383/383 388/388/388 382/382/382
f 389/389/389 386/386/386 387/387/387
f 386/386/386 389/389/389 388/388/388
f 390/390/390 382/382/382 388/388/388
f 382/382/382 390/390/390 381/381/381
f 391/391/391 388/388/388 389/389/389
f 388/388/388 391/391/391 390/390/390
f 392/392/392 381/381/381 390/390/390
f 381/381/381 392/392/392 370/370/370
f 369/369/369 370/370/370 392/392/392
f 390/390/390 393/393/393 392/392/392
f 393/393/393 390/390/390 391/391/391
f 392/392/392 394/394/394 369/369/369
f 394/394/394 392/392/392 393/393/393
f 369/369/369 394/394/394 361/361/361
f 391/391/391 395/395/395 393/393/393
f 396/396/396 361/361/361 394/394/394
f 361/361/361 396/396/396 358/358/358
f 393/393/393 397/397/397 394/394/394
f 394/394/394 397/397/397 396/396/396
f 397/397/397 393/393/393 395/395/395
f 357/357/357 358/358/358 396/396/396
f 398/398/398 396/396/396 397/397/397
f 396/396/396 398/398/398 357/357/357
f 395/395/395 399/399/399 397/397/397
f 397/397/397 399/399/399 398/398/398
f 400/400/400 357/357/357 398/398/398
f 357/357/357 400/400/400 353/353/353
f 352/352/352 353/353/353 400/400/400
f 398/398/398 401/401/401 400/400/400
f 401/401/401 398/398/398 399/399/399
f 400/400/400 402/402/402 352/352/352
f 402/402/402 400/400/400 401/401/401
f 348/348/348 352/352/352 402/402/402
f 399/399/399 403/403/403 401/401/401
f 402/402/402 404/404/404 348/348/348
f 347/347/347 348/348/348 404/404/404
f 401/401/401 405/405/405 402/402/402
f 404/404/404 402/402/402 405/405/405
f 405/405/405 401/401/401 403/403/403
f 404/404/404 406/406/406 347/347/347
f 342/342/342 347/347/347 406/406/406
f 405/405/405 407/407/407 404/404/404
f 406/406/406 404/404/404 407/407/407
f 403/403/403 408/408/408 405/405/405
f 407/407/407 405/405/405 408/408/408
f 406/406/406 409/409/409 342/342/342
f 341/341/341 342/342/342 409/409/409
f 407/407/407 410/410/410 406/406/406
f 409/409/409 406/406/406 410/410/410
f 408/408/408 411/411/411 407/407/407
f 410/410/410 407/407/407 411/411/411
f 409/409/409 412/412/412 341/341/341
f 336/336/336 341/341/341 412/412/412
f 410/410/410 413/413/413 409/409/409
f 412/412/412 409/409/409 413/413/413
f 411/411/411 414/414/414 410/410/410
f 413/413/413 410/410/410 414/414/414
f 412/412/412 415/415/415 336/336/336
f 335/335/335 336/336/336 415/415/415
f 413/413/413 416/416/416 412/412/412
f 415/415/415 412/412/412 416/416/416
f 414/414/414 417/417/417 413/413/413
f 416/416/416 413/413/413 417/417/417
f 415/415/415 418/418/418 335/335/335
f 330/330/330 335/335/335 418/418/418
f 416/416/416 419/419/419 415/415/415
f 418/418/418 415/415/415 419/419/419
f 417/417/417 420/420/420 416/416/416
f 419/419/419 416/416/416 420/420/420
f 418/418/418 421/421/421 330/330/330
f 329/329/329 330/330/330 421/421/421
f 419/419/419 422/422/422 418/418/418
f 421/421/421 418/418/418 422/422/422
f 420/420/420 423/423/423 419/419/419
f 422/422/422 419/419/419 423/423/423
f 421/421/421 424/424/424 329/329/329
f 324/324/324 329/329/329 424/424/424
f 422/422/422 425/425/425 421/421/421
f 424/424/424 421/421/421 425/425/425
f 423/423/423 426/426/426 422/422/422
f 425/425/425 422/422/422 426/426/426
f 424/424/424 427/427/427 324/324/324
f 323/323/323 324/324/324 427/427/427
f 425/425/425 428/428/428 424/424/424
f 427/427/427 424/424/424 428/428/428
f 426/426/426 429/429/429 425/425/425
f 428/428/428 425/425/425 429/429/429
f 427/427/427 430/430/430 323/323/323
f 318/318/318 323/323/323 430/430/430
f 428/428/428 431/431/431 427/427/427
f 430/430/430 427/427/427 431/431/431
f 429/429/429 432/432/432 428/428/428
f 431/431/431 428/428/428 432/432/432
f 430/430/430 433/433/433 318/318/318
f 317/317/317 318/318/318 433/433/433
f 431/431/431 434/434/434 430/430/430
f 433/433/433 430/430/430 434/434/434
f 432/432/432 435/435/435 431/431/431
f 434/434/434 431/431/431 435/435/435
f 433/433/433 436/436/436 317/317/317
f 312/312/312 317/317/317 436/436/436
f 434/434/434 437/437/437 433/433/433
f 436/436/436 433/433/433 437/437/437
f 435/435/435 438/438/438 434/434/434
f 437/437/437 434/434/434 438/438/438
f 436/436/436 439/439/439 312/312/312
f 309/309/309 312/312/312 439/439/439
f 439/439/439 143/143/143 309/309/309
f 437/437/437 440/440/440 436/436/436
f 439/439/439 436/436/436 440/440/440
f 143/143/143 439/439/439 441/441/441
f 440/440/440 441/441/441 439/439/439
f 441/441/441 139/139/139 143/143/143
f 139/139/139 441/441/441 137/137/137
f 442/442/442 137/137/137 441/441/441
f 441/441/441 440/440/440 442/442/442
f 136/136/136 137/137/137 442/442/442
f 440/440/440 437/437/437 443/443/443
f 443/443/443 442/442/442 440/440/440
f 438/438/438 443/443/443 437/437/437
f 442/442/442 444/444/444 136/136/136
f 444/444/444 442/442/442 443/443/443
f 43/43/43 136/136/136 444/444/444
f 444/444/444 39/39/39 43/43/43
f 443/443/443 445/445/445 444/444/444
f 39/39/39 444/444/444 445/445/445
f 445/445/445 443/443/443 438/438/438
f 445/445/445 36/36/36 39/39/39
f 438/438/438 446/446/446 445/445/445
f 36/36/36 445/445/445 446/446/446
f 446/446/446 438/438/438 435/435/435
f 446/446/446 32/32/32 36/36/36
f 435/435/435 447/447/447 446/446/446
f 32/32/32 446/446/446 447/447/447
f 447/447/447 435/435/435 432/432/432
f 447/447/447 29/29/29 32/32/32
f 432/432/432 448/448/448 447/447/447
f 29/29/29 447/447/447 448/448/448
f 448/448/448 432/432/432 429/429/429
f 448/448/448 25/25/25 29/29/29
f 429/429/429 449/449/449 448/448/448
f 25/25/25 448/448/448 449/449/449
f 449/449/449 429/429/429 426/426/426
f 449/449/449 22/22/22 25/25/25
f 426/426/426 450/450/450 449/449/449
f 22/22/22 449/449/449 450/450/450
f 450/450/450 426/426/426 423/423/423
f 450/450/450 17/17/17 22/22/22
f 423/423/423 451/451/451 450/450/450
f 17/17/17 450/450/450 451/451/451
f 451/451/451 423/423/423 420/420/420
f 451/451/451 15/15/15 17/17/17
f 420/420/420 452/452/452 451/451/451
f 15/15/15 451/451/451 452/452/452
f 452/452/452 420/420/420 417/417/417
f 452/452/452 13/13/13 15/15/15
f 417/417/417 453/453/453 452/452/452
f 13/13/13 452/452/452 453/453/453
f 453/453/453 417/417/417 414/414/414
f 453/453/453 454/454/454 13/13/13
f 9/9/9 13/13/13 454/454/454
f 414/414/414 455/455/455 453/453/453
f 454/454/454 453/453/453 455/455/455
f 455/455/455 414/414/414 411/411/411
f 454/454/454 456/456/456 9/9/9
f 5/5/5 9/9/9 456/456/456
f 455/455/455 457/457/457 454/454/454
f 456/456/456 454/454/454 457/457/457
f 411/411/411 458/458/458 455/455/455
f 457/457/457 455/455/455 458/458/458
f 458/458/458 411/411/411 408/408/408
f 456/456/456 459/459/459 5/5/5
f 5/5/5 459/459/459 4/4/4
f 408/408/408 460/460/460 458/458/458
f 460/460/460 408/408/408 403/403/403
f 4/4/4 459/459/459 461/461/461
f 461/461/461 385/385/385 4/4/4
f 459/459/459 456/456/456 462/462/462
f 462/462/462 461/461/461 459/459/459
f 457/457/457 462/462/462 456/456/456
f 461/461/461 463/463/463 385/385/385
f 385/385/385 463/463/463 387/387/387
f 461/461/461 462/462/462 464/464/464
f 464/464/464 463/463/463 461/461/461
f 462/462/462 457/457/457 465/465/465
f 458/458/458 465/465/465 457/457/457
f 465/465/465 464/464/464 462/462/462
f 465/465/465 458/458/458 460/460/460
f 466/466/466 387/387/387 463/463/463
f 463/463/463 464/464/464 466/466/466
f 387/387/387 466/466/466 389/389/389
f 464/464/464 465/465/465 467/467/467
f 467/467/467 466/466/466 464/464/464
f 460/460/460 467/467/467 465/465/465
f 468/468/468 389/389/389 466/466/466
f 466/466/466 467/467/467 468/468/468
f 389/389/389 468/468/468 391/391/391
f 395/395/395 391/391/391 468/468/468
f 467/467/467 460/460/460 469/469/469
f 469/469/469 468/468/468 467/467/467
f 468/468/468 469/469/469 395/395/395
f 403/403/403 469/469/469 460/460/460
f 399/399/399 395/395/395 469/469/469
f 469/469/469 403/403/403 399/399/399
